<svg xmlns="http://www.w3.org/2000/svg" xmlns:xlink="http://www.w3.org/1999/xlink" viewBox="0 0 382.42 455.08"><defs><style>.cls-1{isolation:isolate;}.cls-2,.cls-4,.cls-5,.cls-6,.cls-7{mix-blend-mode:overlay;opacity:0.46;}.cls-2{fill:url(#linear-gradient);}.cls-3{fill:#65b1eb;}.cls-4{fill:url(#linear-gradient-2);}.cls-5{fill:url(#linear-gradient-3);}.cls-6{fill:url(#linear-gradient-4);}.cls-7{fill:url(#linear-gradient-5);}.cls-8{mix-blend-mode:multiply;opacity:0.19;}.cls-9{fill:#6d6e71;}.cls-10{fill:#fefefe;}.cls-11{fill:#a7a9ac;}.cls-12{fill:#d1d3d4;}.cls-13{fill:#1b75bc;}.cls-14{fill:#18619c;}.cls-15{fill:#2c2c2c;}.cls-16{fill:#52514d;}.cls-17{fill:#85847c;}.cls-18{fill:#1c2f38;}.cls-19{fill:#2e2d2e;}.cls-20{fill:#414042;}.cls-21{fill:#6d6e6e;}.cls-22{fill:#b4b6b7;}.cls-23{fill:#bcbec0;}.cls-24{fill:#939598;}.cls-25{fill:#1c1b1c;}.cls-26{fill:#fff;}.cls-27{fill:#16688a;}.cls-28{fill:#baeaff;}.cls-29{fill:#85d7ff;}.cls-30{fill:#9eb5ff;}.cls-31{fill:#dd9eff;}.cls-32{fill:#fcefef;}.cls-33{fill:#a88a8b;}.cls-34{fill:#e0d5d5;}.cls-35{fill:#453536;}.cls-36{fill:#7f8083;}.cls-37{fill:#c6c7c8;}.cls-38{fill:#909294;}.cls-39{opacity:0.3;fill:url(#linear-gradient-6);}.cls-40{fill:url(#linear-gradient-7);}.cls-41{fill:#ededed;}.cls-42{fill:#c8b4b6;}.cls-43{fill:#ebb68b;}.cls-44{fill:#33589e;}.cls-45{fill:#3c69bc;}.cls-46{fill:#58595b;}.cls-47{fill:#231f20;}</style><linearGradient id="linear-gradient" x1="126.79" y1="168.07" x2="154.02" y2="168.07" gradientUnits="userSpaceOnUse"><stop offset="0" stop-color="#f4e0c1"/><stop offset="1" stop-color="#fff"/></linearGradient><linearGradient id="linear-gradient-2" x1="215.74" y1="127.7" x2="237.86" y2="127.7" xlink:href="#linear-gradient"/><linearGradient id="linear-gradient-3" x1="288.55" y1="100.51" x2="312.79" y2="100.51" xlink:href="#linear-gradient"/><linearGradient id="linear-gradient-4" x1="165.9" y1="90.65" x2="183.95" y2="90.65" xlink:href="#linear-gradient"/><linearGradient id="linear-gradient-5" x1="221.41" y1="59.2" x2="242.8" y2="59.2" xlink:href="#linear-gradient"/><linearGradient id="linear-gradient-6" x1="276.5" y1="191.26" x2="291.65" y2="191.26" gradientUnits="userSpaceOnUse"><stop offset="0" stop-color="#fff" stop-opacity="0.8"/><stop offset="0.98" stop-color="#fff" stop-opacity="0.02"/><stop offset="1" stop-color="#fff" stop-opacity="0"/></linearGradient><linearGradient id="linear-gradient-7" x1="260.4" y1="198.27" x2="275.78" y2="198.27" xlink:href="#linear-gradient-6"/></defs><g class="cls-1"><g id="OBJECTS"><path class="cls-2" d="M154,147.9c0-1.8-1.29-2.53-2.86-1.62l-21.46,12.39a6.27,6.27,0,0,0-2.84,4.91l.07,24.66c0,1.81,1.29,2.54,2.86,1.63l21.46-12.39a6.28,6.28,0,0,0,2.84-4.92Z" transform="translate(-85.19 -29.51)"/><path class="cls-3" d="M134.62,92.67c0-1.81-1.29-2.53-2.85-1.63l-21.47,12.4a6.21,6.21,0,0,0-2.83,4.91l.07,24.66c0,1.8,1.28,2.53,2.85,1.63l21.46-12.4a6.25,6.25,0,0,0,2.84-4.91Z" transform="translate(-85.19 -29.51)"/><path class="cls-3" d="M189.74,115.08c0-1.46-1-2-2.32-1.32L170,123.83a5.07,5.07,0,0,0-2.3,4l0,20c0,1.47,1.05,2.06,2.32,1.32l17.44-10.06a5.1,5.1,0,0,0,2.31-4Z" transform="translate(-85.19 -29.51)"/><path class="cls-4" d="M237.8,111.31c0-1.46-1-2-2.31-1.32L218,120.06a5.1,5.1,0,0,0-2.3,4l.06,20c0,1.47,1,2.06,2.32,1.32l17.44-10.07a5.09,5.09,0,0,0,2.3-4Z" transform="translate(-85.19 -29.51)"/><path class="cls-5" d="M312.73,82.55c0-1.61-1.15-2.25-2.54-1.44l-19.11,11a5.56,5.56,0,0,0-2.53,4.37l.07,21.95c0,1.61,1.14,2.26,2.54,1.45l19.1-11a5.57,5.57,0,0,0,2.53-4.37Z" transform="translate(-85.19 -29.51)"/><path class="cls-3" d="M265,83.25c0-1.46-1-2-2.32-1.32L245.22,92a5.07,5.07,0,0,0-2.3,4l.05,20c0,1.47,1.05,2.06,2.32,1.32l17.44-10.07a5.07,5.07,0,0,0,2.31-4Z" transform="translate(-85.19 -29.51)"/><path class="cls-3" d="M293.27,31.15c0-1.47-1-2.06-2.32-1.32L273.51,39.9a5.1,5.1,0,0,0-2.3,4l.06,20c0,1.47,1,2.06,2.31,1.32L291,55.18a5.09,5.09,0,0,0,2.3-4Z" transform="translate(-85.19 -29.51)"/><path class="cls-6" d="M183.91,77.28c0-1.2-.86-1.68-1.9-1.08l-14.23,8.22a4.15,4.15,0,0,0-1.88,3.25L166,104c0,1.19.85,1.68,1.89,1.08l14.23-8.22A4.13,4.13,0,0,0,184,93.63Z" transform="translate(-85.19 -29.51)"/><path class="cls-3" d="M213.89,82c0-1.19-.85-1.68-1.89-1.07l-14.23,8.21a4.16,4.16,0,0,0-1.88,3.26l.05,16.35c0,1.2.85,1.68,1.89,1.08l14.23-8.21a4.19,4.19,0,0,0,1.88-3.26Z" transform="translate(-85.19 -29.51)"/><path class="cls-7" d="M242.74,43.36c0-1.42-1-2-2.24-1.28l-16.86,9.73a4.92,4.92,0,0,0-2.23,3.86l.05,19.38c0,1.42,1,2,2.25,1.28l16.86-9.74a4.93,4.93,0,0,0,2.23-3.86Z" transform="translate(-85.19 -29.51)"/><path class="cls-3" d="M163.38,59.82c0-1.2-.86-1.68-1.9-1.08L147.25,67a4.14,4.14,0,0,0-1.88,3.25l0,16.36c0,1.19.85,1.68,1.89,1.08l14.23-8.22a4.13,4.13,0,0,0,1.88-3.26Z" transform="translate(-85.19 -29.51)"/><path class="cls-3" d="M107.41,167.67c0-1.48-1-2.07-2.34-1.33L87.51,176.48a5.13,5.13,0,0,0-2.32,4l.06,20.17c0,1.48,1,2.08,2.34,1.34l17.56-10.14a5.15,5.15,0,0,0,2.32-4Z" transform="translate(-85.19 -29.51)"/><path class="cls-3" d="M188.11,151.19c0-1.47-1.05-2.07-2.33-1.33L168.22,160a5.13,5.13,0,0,0-2.32,4L166,184.2c0,1.47,1,2.07,2.33,1.33l17.56-10.14a5.08,5.08,0,0,0,2.32-4Z" transform="translate(-85.19 -29.51)"/><path class="cls-3" d="M168.89,196c0-1.48-1-2.07-2.33-1.33L149,204.78a5.06,5.06,0,0,0-2.32,4l0,20.18c0,1.48,1.06,2.07,2.34,1.33l17.56-10.14a5.13,5.13,0,0,0,2.32-4Z" transform="translate(-85.19 -29.51)"/><g class="cls-8"><path class="cls-9" d="M467.61,335.74c0-3.87-2.54-7.48-7.23-10.18L392,286.09a21.75,21.75,0,0,0,6.84-14.1l2.95-75.28c.13-3.32-1-5.86-3-7h0L389.1,184a5,5,0,0,0-.52-.25l-.24-.09-.19.41h0l.07-.45-.19-.07-.22-.05-.37-.08a5.68,5.68,0,0,0-.66-.08H386l-.31,0h-.09l-.19,0-.25.06-.48.1-.15,0-.57.18c-.2.07-.41.14-.62.23l-.47.22c-.3.14-.6.29-.91.47L360.68,197a9.93,9.93,0,0,0-1.41.39l-10.33-6-.48-1.65c1.23-1.33,7.54-9.12,3.41-24.49a19,19,0,0,0-7.19-10.69c-4.93-3.49-11-4.26-18-2.32a28.14,28.14,0,0,0-12.82,7.42,17.15,17.15,0,0,0-4.22,6.74,8,8,0,0,0-.34,2.11,13.69,13.69,0,0,0-12.09.14L284,176.36l-.17-59a2.55,2.55,0,0,0-1.13-2.36l0,0,0,0-3.42-2a1.74,1.74,0,0,0-.23-.1l-.4-.12-.21,0h-.34l-.61.11-.25.09-.13.05a2.92,2.92,0,0,0-.43.22L187,165a5.26,5.26,0,0,0-.52.35l-.08.06c-.16.13-.32.27-.5.44l-.08.08-.22.24.31.32h0l-.37-.26-.56.73.38.25-.43-.17-.06.09-.16.26-.3.56-.13.29-.14.35-.09.25.42.14H184l-.16.59,0,.12c0,.09,0,.17,0,.27l0,.13a5.85,5.85,0,0,0,0,.59l.17,59.2a2.86,2.86,0,0,0,.64,2,1.86,1.86,0,0,0,.48.4l1.43.83-14.11,8.19c-12.12,7.05-18.76,16.38-18.77,26.36h0l0,8a23.61,23.61,0,0,0,3.45,12.15l-.05,12-44.46,25.84c-4.58,2.66-7.11,6.22-7.12,10l0,12.2c0,3.86,2.56,7.48,7.24,10.18L270,448.9c.54.31,1.13.62,1.77.92l.39.18.49.21c.27.13.55.25.83.36l.62.22c.48.18,1,.35,1.46.51l.85.26.36.09.26.06c.49.13,1,.26,1.49.37l.17,0,.23.05.34.07.26,0,1.27.22.22,0,.29,0,.33,0,.23,0,1.2.14.25,0,.33,0,.3,0h.23c.41,0,.81.05,1.22.06l.26,0,.35,0h2.46l.23,0h.15c.55,0,1.09-.06,1.63-.11l.27,0,.38,0,.79-.1c.56-.06,1.12-.14,1.67-.23l.6-.1.47-.1.46-.1c.39-.07.79-.15,1.17-.25s.45-.11.68-.18l.33-.09c.39-.11.79-.21,1.18-.34l.26-.07c.5-.16,1-.34,1.47-.52l.2-.08c.53-.21,1-.43,1.55-.66l.44-.21c.65-.32,1.17-.59,1.63-.86L460.46,358l.62-.38.38-.24.39-.26.41-.29.36-.27.38-.3.34-.28.4-.35.22-.21c.19-.18.37-.36.55-.55l.18-.19c.23-.24.44-.49.66-.77a1,1,0,0,0,.13-.17l.35-.48L466,353a4,4,0,0,0,.27-.44l.17-.3c.07-.12.13-.24.19-.37l.15-.31c.06-.13.11-.25.18-.43l.1-.27.12-.36c0-.11.07-.22.1-.33s.06-.24.1-.43l.05-.27a3.21,3.21,0,0,0,.07-.43,2.48,2.48,0,0,0,0-.27,4.16,4.16,0,0,0,0-.45l.05-12.56h0ZM296.19,439.28Zm-2.27.47Zm-1.23.19Zm-3.85.35Zm-10.21-.85Zm-1.47-.36ZM187.77,171.19ZM170,292.07Zm-1.46-1Zm-11.17-11.46h0Zm309,59.54Zm-.78,1.42,0,0h0Zm.38-.63v0h0Zm.32-.64v0h0ZM393.17,190.06Zm2-.57Zm-3.3,1.22Zm-5.16-6.92Zm-107.9-70.51Zm-.84-.06Zm-91.32,52.57Zm-.49.44Zm-.55.62Zm-.21.28Zm-.17.26Z" transform="translate(-85.19 -29.51)"/><path class="cls-9" d="M107.08,238.36l8.18,4.76h0a2.89,2.89,0,0,0,1.46.38,4.65,4.65,0,0,0,2.32-.7l35.43-20.45a10.84,10.84,0,0,0,4.9-8.5l-.11-40.7a3.72,3.72,0,0,0-1.59-3.4L149.46,165a1.83,1.83,0,0,0-.34-.16l-.16.41h0l0-.46-.12,0-.31-.07-.33,0h-.1a2.26,2.26,0,0,0-.26,0l-.53.07-.24,0-.21.06-.39.13-.17.07a5.45,5.45,0,0,0-.64.32l-35.43,20.45a8.86,8.86,0,0,0-.93.65l-.2.17-.21.18-.32.29-.53.57c-.14.16-.27.32-.4.49l-.32.43c-.1.14-.2.28-.29.43s-.17.27-.28.47-.14.23-.2.35l-.21.41c-.06.13-.12.26-.19.43a3.38,3.38,0,0,0-.18.44c-.06.15-.11.3-.17.46l-.15.5c0,.19-.1.37-.14.56s0,.16,0,.24l-.08.45a8.18,8.18,0,0,0-.06,1l.12,40.7A3.7,3.7,0,0,0,107.08,238.36Zm7.28-41.62Zm40.34-26.58Zm.53-.19Zm-6.32-4.77Zm-1.77,0Zm-.55.19ZM106.17,192Zm-.29,1.35Z" transform="translate(-85.19 -29.51)"/><path class="cls-9" d="M133.74,148.56l6.65,3.86.07,0h0a2.42,2.42,0,0,0,1.21.31,4,4,0,0,0,2-.59l29-16.74a8.93,8.93,0,0,0,4-7l-.09-33.31a3.11,3.11,0,0,0-1.35-2.85h0l-6.72-3.91-.28-.13-.47-.13-.29,0h-.37l-.37,0-.18,0-.2,0-.32.11-.15.06c-.17.08-.35.16-.52.26l-29,16.74a7.4,7.4,0,0,0-.78.54l-.15.14-.18.16a1.86,1.86,0,0,0-.26.23l-.44.47a4.12,4.12,0,0,0-.33.4l-.27.36-.24.35c-.07.11-.13.22-.23.4a2.54,2.54,0,0,0-.16.28l-.18.34c0,.11-.09.21-.15.35a2.75,2.75,0,0,0-.15.36c-.05.13-.1.26-.14.39l-.06.19.4.21h0l-.44-.09,0,.1c0,.15-.08.31-.11.46a2,2,0,0,0,0,.29l-.05.28a7.65,7.65,0,0,0,0,.81l.09,33.31A3.15,3.15,0,0,0,133.74,148.56Zm6.36-35.13s0,0,0,0h0s0,0,0,0Zm-.08.2Zm.16-.36h0v0Zm-.09.17Zm2.46-3.29Zm.72-.5Zm24.71-21Z" transform="translate(-85.19 -29.51)"/><path class="cls-9" d="M221.82,93.38h0l-.18-.09-.39-.11-.19,0h-.1a.71.71,0,0,0-.21,0l-.55.11-.22.07-.12,0-.38.19L199.1,105.32c-.19.12-.38.25-.56.39l-.17.15-.08.06-.18.17-.32.34a3.25,3.25,0,0,0-.23.29l-.2.26c-.05.08-.11.16-.16.25a1.72,1.72,0,0,0-.17.28l-.12.2c0,.08-.08.17-.12.24l-.12.26c0,.08-.07.17-.1.26s-.07.18-.1.27l-.09.3c0,.11-.06.22-.08.33l0,.21,0,.2a4,4,0,0,0,0,.59l.06,23.39a2.33,2.33,0,0,0,1,2.11l4.71,2.74v0a1.85,1.85,0,0,0,.95.25,2.88,2.88,0,0,0,1.41-.42l20.36-11.75a6.36,6.36,0,0,0,2.91-5l-.07-23.39a4.12,4.12,0,0,0,0-.51l1.54.89-1.9-1.9a1.87,1.87,0,0,0-.56-.56Zm-20,17.71Zm-.26.71Zm2.48-3.36Zm-.85.68h0l0,0Zm-.39.41Zm18.58-15.87Zm-.55-.07Zm-22.68,13.13ZM196.85,109Z" transform="translate(-85.19 -29.51)"/><path class="cls-9" d="M244.12,99.52,250,103v0a2.2,2.2,0,0,0,1.13.3,3.43,3.43,0,0,0,1.72-.52L278.48,88a7.83,7.83,0,0,0,3.6-6.25L282,52.3a2.78,2.78,0,0,0-1.21-2.56h0l-5.94-3.45-.25-.12-.43-.12-.33,0h-.27l-.12,0v.44l-.12-.43-.09,0-.17,0,.07.44-.16-.42-.08,0-.29.1-.13.06a3.39,3.39,0,0,0-.47.23L246.43,61.31a6.29,6.29,0,0,0-.7.48l-.21.19-.08.07-.24.21-.39.42c-.1.12-.2.23-.29.35l-.11.16.36.26-.42-.18-.07.09-.21.31-.21.35-.14.25-.15.3-.15.32c0,.1-.09.21-.13.32l-.12.33,0,.17.43.14h0l-.46,0,0,.1c0,.14-.07.28-.1.41a2,2,0,0,0-.05.26l0,.25a6.11,6.11,0,0,0-.05.73l.09,29.4A2.78,2.78,0,0,0,244.12,99.52Zm6-31.85Zm23.35-21.19Zm-.11,0Zm-30.09,20.4Z" transform="translate(-85.19 -29.51)"/><path class="cls-9" d="M304.83,133.16l4.71,2.74v0a1.82,1.82,0,0,0,.94.26,2.9,2.9,0,0,0,1.42-.43L332.26,124a6.34,6.34,0,0,0,2.91-5l-.07-23.39a2.3,2.3,0,0,0-1-2.11l-4.72-2.75-.18-.08L329,91h0l.06-.45-.28-.08-.2,0h-.29l-.55.11-.23.07-.12,0-.39.19-20.35,11.76a4.24,4.24,0,0,0-.56.38l-.13.11.25.38-.36-.28-.19.17-.32.34-.24.29-.19.26-.17.25-.19.32-.09.16c0,.09-.09.17-.12.25l-.12.25a2,2,0,0,0-.1.26c0,.09-.07.18-.1.27l-.09.3-.09.34-.07.4c0,.2,0,.4,0,.59l.06,23.39A2.3,2.3,0,0,0,304.83,133.16Zm5.76-26.62Zm.5-.45Zm-.16.13Zm-.43.42Zm-1.39,2.45ZM328.92,91Zm-.54-.07Zm-.13,0Zm-22.84,13.49Z" transform="translate(-85.19 -29.51)"/><path class="cls-9" d="M189.74,89.43l5.57,3.24h0a2.12,2.12,0,0,0,1.08.28,3.31,3.31,0,0,0,1.64-.49l24.14-13.94a7.42,7.42,0,0,0,3.41-5.91l-.08-27.74a3.84,3.84,0,0,0-.07-.78l1.43.83-1.8-1.8a2,2,0,0,0-.71-.69l-5.6-3.25a1.47,1.47,0,0,0-.25-.12l-.4-.11-.24,0h-.44v.45l-.12-.44-.41.1-.27.09-.14.06a3.61,3.61,0,0,0-.44.22L191.91,53.34a5.51,5.51,0,0,0-.65.46,1.64,1.64,0,0,0-.2.17L191,54l-.22.2-.37.39-.27.34-.09.12.31.33-.39-.23-.06.09a2.9,2.9,0,0,0-.19.29l-.21.33-.13.24-.15.29-.13.29A2.85,2.85,0,0,0,189,57l-.12.32,0,.1.43.13h-.47l0,.12c0,.14-.07.27-.1.4l-.08.48a5.31,5.31,0,0,0-.05.68L188.58,87A2.64,2.64,0,0,0,189.74,89.43Zm28.55-50ZM190.37,55.36Z" transform="translate(-85.19 -29.51)"/></g><path class="cls-10" d="M456.72,322.79,299.25,231.87c-9.31-5.37-24.34-5.37-33.58,0L109.21,322.79c-9.25,5.37-9.19,14.08.11,19.45L266.8,433.16c9.3,5.37,24.34,5.37,33.58,0l156.46-90.92C466.08,336.87,466,328.16,456.72,322.79Z" transform="translate(-85.19 -29.51)"/><path class="cls-11" d="M463.72,333l0,.36c0,.1,0,.21,0,.31s0,.24,0,.36-.05.21-.07.31,0,.23-.08.35-.06.21-.1.31a3.38,3.38,0,0,1-.11.34,2.85,2.85,0,0,1-.12.31,2.75,2.75,0,0,1-.15.36c0,.1-.09.2-.14.3l-.18.36-.16.28c-.08.15-.17.29-.26.43l-.17.25c-.1.15-.22.31-.33.46l-.15.2c-.19.24-.4.48-.62.72l-.17.18c-.17.18-.35.36-.54.53L460,340l-.34.3-.33.28-.37.29-.35.26-.4.28-.38.26-.43.27-.55.34L300.38,433.16c-.51.3-1.05.58-1.6.84l-.44.21c-.49.23-1,.44-1.52.65l-.2.08c-.56.21-1.13.4-1.71.58-.4.13-.81.24-1.22.35s-.62.18-.93.25-.87.2-1.31.28l-1,.2-.4.06-1.65.24L288,437c-.31,0-.63.06-.95.08-.53.05-1.07.09-1.61.11l-1,0h-1.31q-.54,0-1.08,0c-.41,0-.81,0-1.21-.06l-1.09-.09c-.4,0-.8-.08-1.19-.14s-.71-.09-1.06-.15l-1.26-.21-1-.2c-.5-.11-1-.24-1.48-.37l-1-.25-.5-.16c-.49-.15-1-.31-1.44-.49l-.41-.15c-.43-.17-.85-.35-1.26-.53l-.62-.27c-.6-.29-1.18-.59-1.74-.91L109.32,342.24c-4.68-2.7-7-6.25-7-9.8l0,12.2c0,3.55,2.33,7.09,7,9.8l157.48,90.92c.56.32,1.14.62,1.74.91l.61.26c.36.16.71.33,1.07.47l.19.07.42.15c.47.18.95.34,1.44.49l.5.16.34.1c.2.06.41.1.61.15.48.13,1,.26,1.47.37l.4.09.59.1c.41.08.83.16,1.25.22.17,0,.34.07.51.09s.37,0,.56.06l1.18.14.57.06.53,0q.6,0,1.2.06l.61,0H285l.38,0c.54,0,1.07-.06,1.6-.11l.65,0,.31,0,.48-.06c.55-.06,1.1-.14,1.64-.23l.4-.06.2,0,.77-.17c.43-.09.87-.17,1.3-.28s.63-.16.94-.25.82-.22,1.22-.35l.26-.07q.74-.24,1.44-.51l.21-.08c.52-.21,1-.42,1.52-.65l.43-.21c.55-.26,1.09-.54,1.61-.84L456.8,354.44l.29-.17.26-.17.43-.27.38-.26.4-.28.36-.26.37-.3.33-.27.34-.3.14-.12.12-.12.53-.53.18-.18c.22-.24.42-.48.61-.72l0,0,.12-.17c.12-.15.23-.31.34-.46l.16-.26c.09-.14.18-.27.26-.42a1,1,0,0,0,.08-.11.91.91,0,0,1,.09-.17l.18-.36.14-.3.15-.36.07-.16c0-.05,0-.1,0-.15s.07-.22.11-.34l.09-.31.09-.35c0-.06,0-.12,0-.19s0-.08,0-.12l.06-.36c0-.1,0-.21,0-.31s0-.24,0-.36a1.49,1.49,0,0,0,0-.21v-.21l0-12.2C463.73,332.72,463.72,332.86,463.72,333Z" transform="translate(-85.19 -29.51)"/><path class="cls-12" d="M266.89,311.24s0,.57,0,1.39a8.73,8.73,0,0,0,3.53,6.5c4.24,3.16,14.75,9.14,34.09,9.61a9.62,9.62,0,0,0,4.52-.94,5.5,5.5,0,0,0,3.25-6.39Z" transform="translate(-85.19 -29.51)"/><path class="cls-13" d="M306,325.93c-1,.09-2.07.15-3.3.18a70,70,0,0,1-10.72-.89,47.23,47.23,0,0,1-19.07-7.15c-5.64-3.73-9.8-8.44-.4-11,0,0,8.56-2.24,25,1.3l5.69,1,8.57,1.55a37.36,37.36,0,0,1,1.26,6.22A7.94,7.94,0,0,1,306,325.93Z" transform="translate(-85.19 -29.51)"/><path class="cls-14" d="M306,325.93c-1,.09-2.07.15-3.3.18,3.08-4.31.8-16.63.52-16.7l8.57,1.55a37.36,37.36,0,0,1,1.26,6.22A7.94,7.94,0,0,1,306,325.93Z" transform="translate(-85.19 -29.51)"/><path class="cls-12" d="M282,316.35a.79.79,0,0,1-.77-.67c-1-7.95,5.05-10.36,5.12-10.39a.77.77,0,0,1,1,.45.78.78,0,0,1-.44,1c-.21.08-5,2-4.14,8.75a.76.76,0,0,1-.66.86Z" transform="translate(-85.19 -29.51)"/><path class="cls-12" d="M285.35,316.79a.77.77,0,0,1-.76-.67c-1-7.94,5.05-10.35,5.11-10.38a.77.77,0,0,1,.55,1.44c-.21.08-5,2-4.13,8.75a.78.78,0,0,1-.67.86Z" transform="translate(-85.19 -29.51)"/><path class="cls-12" d="M288.82,317a.78.78,0,0,1-.77-.67c-1-7.95,5.05-10.36,5.11-10.39a.77.77,0,0,1,.55,1.44c-.2.08-5,2-4.13,8.75a.76.76,0,0,1-.66.86Z" transform="translate(-85.19 -29.51)"/><polygon class="cls-12" points="198.12 294.59 196.8 291.85 205.55 288.38 208.43 289.01 199.92 292.7 201.02 295.35 198.12 294.59"/><polygon class="cls-12" points="203.43 296.1 202.11 293.35 210.85 289.89 213.74 290.52 205.23 294.2 206.33 296.85 203.43 296.1"/><path class="cls-15" d="M312.45,378.47l.06-.37c0-.08,0-.17.05-.25l.06-.23c0-.11.05-.22.09-.33a1.05,1.05,0,0,1,.05-.19c0-.12.08-.25.13-.37a.88.88,0,0,1,.05-.15c.06-.17.13-.34.2-.5l0-.06.21-.45.07-.13c.07-.14.14-.28.22-.41l.05-.09c.09-.16.19-.31.29-.47l.08-.13.23-.33.13-.17.21-.26a1.84,1.84,0,0,1,.17-.22l.18-.2.3-.32.2-.2.15-.14.26-.23.16-.13.29-.21.14-.11.43-.27a4.48,4.48,0,0,1,.58-.29l.18-.07.32-.11.21-.06.18,0,.25,0h.5a2,2,0,0,1,.34.05h.08l.25.08.08,0,.3.15-3.45-2h0l-.23-.11,0,0-.08,0-.12,0-.13,0-.08,0H316l-.27,0h-.38l-.14,0h-.13l-.11,0-.19,0-.1,0-.11,0-.32.11-.11,0-.07,0a6.1,6.1,0,0,0-.58.28l-.43.28-.14.1-.29.22-.16.13-.26.22-.15.15-.1.09-.09.1-.31.33-.1.1a.86.86,0,0,0-.07.1l-.18.21-.12.14-.09.13-.13.17a.83.83,0,0,0-.08.12l-.14.21-.09.13,0,0-.24.39v0l0,.08-.15.28a.83.83,0,0,0-.07.13c0,.05-.05.09-.07.14l-.06.12-.15.33s0,0,0,.05v0c-.06.13-.12.27-.17.41l0,.08-.05.15-.08.2a1.09,1.09,0,0,1-.05.17,1.21,1.21,0,0,1-.05.18s0,.08,0,.12,0,.14-.05.21l-.06.24a.31.31,0,0,1,0,.08l0,.17-.06.36a.3.3,0,0,1,0,.1v.1a7.36,7.36,0,0,0-.06.8,3.23,3.23,0,0,0,1.34,2.94l3.45,2a3.24,3.24,0,0,1-1.34-2.94,5.52,5.52,0,0,1,.06-.81A1.23,1.23,0,0,1,312.45,378.47Z" transform="translate(-85.19 -29.51)"/><path class="cls-16" d="M316.94,371.55a10.06,10.06,0,0,0-4.57,7.92c0,2.9,2.07,4.08,4.6,2.62a10.1,10.1,0,0,0,4.58-7.92C321.54,371.26,319.48,370.08,316.94,371.55Z" transform="translate(-85.19 -29.51)"/><path class="cls-17" d="M317,373.46a6.41,6.41,0,0,0-2.91,5c0,1.85,1.32,2.6,2.93,1.67a6.44,6.44,0,0,0,2.91-5C319.87,373.28,318.56,372.53,317,373.46Z" transform="translate(-85.19 -29.51)"/><path class="cls-15" d="M371.77,345.27l.06-.36c0-.09,0-.17.05-.25l.06-.24.09-.32c0-.07,0-.13.05-.19s.08-.25.13-.37,0-.1.05-.15l.2-.51,0-.05.21-.45s.05-.09.07-.14l.22-.41a.56.56,0,0,0,.05-.08c.09-.16.19-.31.29-.47l.08-.13.23-.33.13-.17.21-.27c.06-.07.11-.14.18-.21s.11-.13.17-.2.2-.22.31-.32a1.8,1.8,0,0,1,.19-.2l.15-.14.26-.23.16-.13a3.15,3.15,0,0,1,.29-.22l.14-.1.43-.28a6.1,6.1,0,0,1,.58-.28L377,338l.32-.12.21-.05.19,0,.24,0h.5l.34,0,.08,0,.25.07.08,0,.3.14-3.45-2h0l-.24-.12h0l-.08,0-.12,0-.13,0-.08,0h-.05l-.27,0h-.38l-.14,0h-.13l-.11,0-.19,0-.1,0-.1,0-.33.11-.11,0-.07,0c-.19.09-.38.18-.57.29s-.3.18-.44.28l-.14.1L372,337l-.15.12-.26.23-.16.15a.76.76,0,0,0-.09.09.94.94,0,0,0-.1.1c-.11.11-.21.21-.31.33l-.1.1-.07.09-.18.22-.12.14-.09.12-.13.18a.83.83,0,0,1-.08.12c-.05.07-.1.14-.14.21l-.09.13,0,.05-.24.39v0a.56.56,0,0,0,0,.08l-.15.28-.07.13c0,.05-.05.09-.07.14l-.06.12-.15.33a.08.08,0,0,0,0,.05v0c-.06.13-.12.27-.17.41l0,.07c0,.05,0,.11-.05.16a1.18,1.18,0,0,0-.07.2,1,1,0,0,0-.05.16l-.06.19,0,.12c0,.07,0,.14-.05.21l-.06.23a.29.29,0,0,1,0,.09.9.9,0,0,1,0,.16l-.06.37a.36.36,0,0,1,0,.1v.1a5.46,5.46,0,0,0-.05.8,3.21,3.21,0,0,0,1.33,2.94l3.45,2a3.21,3.21,0,0,1-1.34-2.94,7.36,7.36,0,0,1,.06-.8A1.36,1.36,0,0,1,371.77,345.27Z" transform="translate(-85.19 -29.51)"/><path class="cls-16" d="M376.26,338.35a10.12,10.12,0,0,0-4.57,7.92c0,2.91,2.07,4.09,4.6,2.63a10.08,10.08,0,0,0,4.58-7.92C380.86,338.07,378.8,336.89,376.26,338.35Z" transform="translate(-85.19 -29.51)"/><path class="cls-17" d="M376.27,340.27a6.44,6.44,0,0,0-2.91,5c0,1.85,1.32,2.6,2.93,1.67a6.41,6.41,0,0,0,2.91-5C379.2,340.09,377.88,339.34,376.27,340.27Z" transform="translate(-85.19 -29.51)"/><path class="cls-15" d="M376.25,377.64c0-.13,0-.25-.07-.37a2.21,2.21,0,0,0-.05-.25,1.55,1.55,0,0,0-.05-.23l-.09-.33-.06-.19-.12-.37a.88.88,0,0,1-.05-.15l-.21-.5a.14.14,0,0,1,0-.06l-.21-.45a.83.83,0,0,1-.07-.13c-.07-.14-.15-.28-.23-.41l0-.09c-.09-.16-.19-.31-.29-.47l-.09-.13-.23-.33-.12-.17-.21-.26-.18-.22-.17-.2c-.1-.11-.2-.22-.31-.32l-.19-.2-.16-.14-.26-.23-.15-.13-.29-.22-.14-.1c-.14-.09-.29-.19-.44-.27a3.83,3.83,0,0,0-.57-.29l-.18-.07-.33-.11a1.52,1.52,0,0,0-.2-.06l-.19,0-.24,0h-.5l-.34,0-.08,0-.25.08-.08,0a1.68,1.68,0,0,0-.3.15l3.45-2h0l.23-.11.05,0,.07,0,.12,0,.14,0,.08,0h0a1.27,1.27,0,0,1,.28,0h.38l.14,0h.13l.11,0,.19,0,.1,0,.1,0,.32.11.12,0,.06,0a5.12,5.12,0,0,1,.58.28l.44.28.14.1.29.22.15.13.26.22.15.15.1.09.1.1c.1.11.21.22.3.33l.1.1.08.1.18.21.11.14a1,1,0,0,1,.09.13,1.09,1.09,0,0,1,.13.17l.09.12.14.21.09.13a.1.1,0,0,0,0,.05c.08.13.16.26.23.39l0,0,0,.08c.06.09.11.19.16.28a.83.83,0,0,0,.07.13l.07.14a.67.67,0,0,0,.06.12l.15.33,0,.05v0c.06.13.11.27.17.41s0,.05,0,.08l.06.15c0,.07.05.13.07.2s0,.11.05.16l.06.19,0,.12.06.21a2,2,0,0,1,.05.24.19.19,0,0,1,0,.08.86.86,0,0,1,0,.17c0,.12.05.24.07.36s0,.07,0,.1a.34.34,0,0,1,0,.1,7.31,7.31,0,0,1,0,.8,3.18,3.18,0,0,1-1.34,2.94l-3.45,2a3.19,3.19,0,0,0,1.34-2.94,7.34,7.34,0,0,0-.05-.81C376.26,377.77,376.26,377.7,376.25,377.64Z" transform="translate(-85.19 -29.51)"/><path class="cls-16" d="M371.75,370.72a10.06,10.06,0,0,1,4.57,7.92c0,2.9-2.07,4.08-4.6,2.62a10.09,10.09,0,0,1-4.57-7.92C367.16,370.43,369.22,369.25,371.75,370.72Z" transform="translate(-85.19 -29.51)"/><path class="cls-17" d="M371.75,372.63a6.44,6.44,0,0,1,2.91,5c0,1.85-1.32,2.6-2.93,1.67a6.38,6.38,0,0,1-2.91-5C368.82,372.45,370.13,371.7,371.75,372.63Z" transform="translate(-85.19 -29.51)"/><path class="cls-15" d="M316.93,344.44c0-.12,0-.24-.07-.36a1.84,1.84,0,0,0-.05-.25,2,2,0,0,0-.05-.24l-.09-.32-.06-.19-.12-.37-.06-.15c-.06-.17-.13-.34-.2-.51a.08.08,0,0,1,0-.05l-.21-.45a.61.61,0,0,1-.07-.14c-.08-.13-.15-.27-.23-.41l0-.08c-.09-.16-.19-.31-.29-.47l-.09-.13-.23-.33-.12-.17-.21-.27-.18-.21-.17-.2-.31-.33-.19-.19-.16-.14-.26-.23-.15-.13-.29-.22-.14-.1-.44-.28a6,6,0,0,0-.57-.28l-.18-.07-.33-.12-.2-.05-.19,0-.24,0h-.5l-.34,0-.08,0-.25.07-.08,0a2.09,2.09,0,0,0-.3.14l3.45-2h0l.23-.12h.05l.07,0,.12,0,.14,0,.08,0h0a1.27,1.27,0,0,1,.28,0H314l.14,0h.12l.12,0,.19,0,.1,0,.1,0,.32.11.12,0,.06,0,.58.29.44.28.14.1.28.22.16.12.26.23.15.15a.43.43,0,0,1,.1.09l.1.1.3.32.1.11.08.09.18.22a1.34,1.34,0,0,1,.11.14l.09.12.13.18.09.12c.05.06.09.14.14.21l.09.13,0,.05c.09.13.16.26.24.39l0,0,0,.08c.05.09.11.18.16.28l.06.13a.91.91,0,0,1,.07.14l.06.12a2.3,2.3,0,0,1,.15.32l0,.06v0c.06.13.11.27.16.41l0,.07.06.15c0,.07.05.14.07.21s0,.11.05.16l.06.19,0,.12a1.6,1.6,0,0,1,.05.21l.06.23a.31.31,0,0,1,0,.08l0,.17c0,.13.05.25.06.37a.36.36,0,0,1,0,.1s0,.06,0,.09a7.65,7.65,0,0,1,.05.81,3.19,3.19,0,0,1-1.34,2.94l-3.45,2a3.18,3.18,0,0,0,1.34-2.94,7.31,7.31,0,0,0-.05-.8A1.36,1.36,0,0,1,316.93,344.44Z" transform="translate(-85.19 -29.51)"/><path class="cls-16" d="M312.43,337.52a10.09,10.09,0,0,1,4.57,7.92c0,2.91-2.07,4.09-4.6,2.62a10.06,10.06,0,0,1-4.57-7.91C307.84,337.24,309.9,336.06,312.43,337.52Z" transform="translate(-85.19 -29.51)"/><path class="cls-17" d="M312.43,339.44a6.44,6.44,0,0,1,2.91,5c0,1.85-1.32,2.6-2.93,1.67a6.38,6.38,0,0,1-2.91-5C309.5,339.26,310.81,338.51,312.43,339.44Z" transform="translate(-85.19 -29.51)"/><path class="cls-9" d="M379.48,331.67l0,.05a1.83,1.83,0,0,1-.21.42.35.35,0,0,0-.05.08,2.66,2.66,0,0,1-.36.4l-.32.23a3,3,0,0,1-.29.2l-26.9,15.64v6l26.9-15.64,0,0a2,2,0,0,0,.23-.17,2.67,2.67,0,0,0,.32-.24l0,0a2.56,2.56,0,0,0,.28-.3l.05-.07.05-.08.08-.12.13-.26a.06.06,0,0,1,0,0s0,0,0-.05a1.28,1.28,0,0,0,.08-.43v0l0-6A1.5,1.5,0,0,1,379.48,331.67Z" transform="translate(-85.19 -29.51)"/><path class="cls-9" d="M311.39,333.05a2.25,2.25,0,0,1-1.33-1.87l0,6a2.27,2.27,0,0,0,1.33,1.87l27.09,15.64,0-6Z" transform="translate(-85.19 -29.51)"/><path class="cls-9" d="M379.67,366.66a.09.09,0,0,1,0,0,1.54,1.54,0,0,1-.22.42.35.35,0,0,1-.05.08,2.66,2.66,0,0,1-.36.4,2.62,2.62,0,0,1-.32.23,2,2,0,0,1-.28.2,5.13,5.13,0,0,1-.89.4l-.35.1-.45.12-.55.09-.14,0a6.45,6.45,0,0,1-.76,0h-.12a6.34,6.34,0,0,1-.76,0h-.11a5.86,5.86,0,0,1-.73-.13l-.13,0a5.79,5.79,0,0,1-.63-.19l-.11,0a4.09,4.09,0,0,1-.7-.33l-27.07-15.63,0,6L372,374.06a4.36,4.36,0,0,0,.65.32h0l.11,0,.41.13.22.06.13,0,.12,0,.45.08.16,0h.11l.17,0,.45,0h.46l.51,0h0l.14,0c.13,0,.26,0,.39-.06l.16,0,.46-.11.24-.06.1,0a4.81,4.81,0,0,0,.89-.4l.06,0a1.84,1.84,0,0,0,.22-.17,2.52,2.52,0,0,0,.33-.24l0,0a3.84,3.84,0,0,0,.28-.3l.05-.07a.35.35,0,0,1,.05-.08s.06-.08.08-.12a1.51,1.51,0,0,0,.12-.26.06.06,0,0,0,0,0l0-.05a1.09,1.09,0,0,1,0-.17l0-.26v-6.06A1.5,1.5,0,0,1,379.67,366.66Z" transform="translate(-85.19 -29.51)"/><path class="cls-9" d="M318,368a4.81,4.81,0,0,1-.89.4l-.34.1-.46.12c-.18,0-.36.07-.55.09l-.14,0a6.34,6.34,0,0,1-.76,0h-.12a6.45,6.45,0,0,1-.76,0h-.11a5.86,5.86,0,0,1-.73-.13l-.13,0c-.21-.05-.42-.12-.63-.19l-.11,0a4,4,0,0,1-.69-.33,2.26,2.26,0,0,1-1.35-1.87v6a2.24,2.24,0,0,0,1.34,1.87,4,4,0,0,0,.66.32h0l.12,0,.4.13.22.06.13,0,.12,0,.45.08.17,0H314l.16,0,.45,0h.47l.5,0h.06l.13,0c.13,0,.26,0,.39-.06l.16,0,.46-.11.24-.06.1,0a5.23,5.23,0,0,0,.9-.4l26.9-15.63,0-6Z" transform="translate(-85.19 -29.51)"/><path class="cls-11" d="M378.41,364.32l-27.08-15.63,26.9-15.64c1.77-1,1.77-2.69,0-3.72a7.06,7.06,0,0,0-6.42,0L344.88,345,317.8,329.32a7.09,7.09,0,0,0-6.42,0c-1.77,1-1.76,2.69,0,3.72l27.09,15.64-26.9,15.63c-1.77,1-1.77,2.69,0,3.72a7.06,7.06,0,0,0,6.42,0l26.91-15.63L372,368a7.08,7.08,0,0,0,6.43,0C380.2,367,380.19,365.35,378.41,364.32Z" transform="translate(-85.19 -29.51)"/><path class="cls-9" d="M352,335.68l0,.08a3.25,3.25,0,0,1-.34.67l-.08.12a4.45,4.45,0,0,1-.59.65l-.08.07a6.66,6.66,0,0,1-.87.61,7.25,7.25,0,0,1-1,.48l-.28.11c-.22.08-.45.14-.68.2s-.47.13-.72.18-.59.12-.89.16l-.21,0c-.4,0-.81.06-1.22.06h-.19q-.6,0-1.2-.06l-.18,0c-.4,0-.79-.12-1.17-.2l-.2-.05a9.93,9.93,0,0,1-1-.31l-.18-.06a7.42,7.42,0,0,1-1.1-.52,3.64,3.64,0,0,1-2.14-3l0,14.18a3.61,3.61,0,0,0,2.14,3,7.12,7.12,0,0,0,1,.5l.06,0a1.27,1.27,0,0,0,.18.06c.21.08.42.16.64.22l.37.09.2.05.19.05.72.12.26,0,.18,0,.27,0,.71,0h.74a7.34,7.34,0,0,0,.81,0h.08l.22,0,.62-.09a2.44,2.44,0,0,0,.26-.06c.25,0,.48-.12.72-.18l.39-.1.29-.11.28-.11a7.22,7.22,0,0,0,1-.47l.09-.06a5.19,5.19,0,0,0,.78-.56l.08-.07.06-.05a4,4,0,0,0,.45-.48l.08-.12.08-.11.13-.2A2.6,2.6,0,0,0,352,350a.14.14,0,0,0,0-.06l0-.08c0-.09.05-.18.07-.26a2,2,0,0,0,.05-.42v-.06l0-14.18A2.79,2.79,0,0,1,352,335.68Z" transform="translate(-85.19 -29.51)"/><path class="cls-11" d="M350,331.94a11.32,11.32,0,0,0-10.25,0c-2.81,1.63-2.8,4.29,0,5.93a11.27,11.27,0,0,0,10.24,0C352.88,336.24,352.86,333.58,350,331.94Z" transform="translate(-85.19 -29.51)"/><path class="cls-9" d="M349.22,298.18a.09.09,0,0,0,0,.05,2,2,0,0,1-.21.41l-.05.07a2.46,2.46,0,0,1-.35.38,2.32,2.32,0,0,1-.3.22,2.69,2.69,0,0,1-.27.2,4.46,4.46,0,0,1-.86.37l-.32.1-.44.11a4.51,4.51,0,0,1-.53.09l-.12,0a6.06,6.06,0,0,1-.73,0h-.12a5.79,5.79,0,0,1-.72,0h-.11c-.23,0-.47-.07-.69-.12l-.13,0a3.82,3.82,0,0,1-.6-.19l-.11,0a5,5,0,0,1-.66-.31,2.2,2.2,0,0,1-1.29-1.8l-.1,36.85a2.2,2.2,0,0,0,1.29,1.8,5.09,5.09,0,0,0,.62.3h0l.1,0,.39.14.22.05.12,0,.11,0,.43.07.16,0h.11l.16,0,.42,0h.45l.48,0h0l.13,0,.37,0,.16,0,.43-.11.23-.05.1,0a4.65,4.65,0,0,0,.85-.37l.06,0a1.66,1.66,0,0,0,.21-.16,2.44,2.44,0,0,0,.31-.22l0,0,.27-.29.05-.07a.43.43,0,0,1,0-.07.57.57,0,0,0,.08-.13,1.34,1.34,0,0,0,.12-.24s0,0,0,0a.09.09,0,0,0,0-.05.75.75,0,0,0,.05-.16,1,1,0,0,0,0-.25v0l.1-36.85A1.41,1.41,0,0,1,349.22,298.18Z" transform="translate(-85.19 -29.51)"/><path class="cls-18" d="M348,296a6.76,6.76,0,0,0-6.16,0c-1.69,1-1.68,2.57,0,3.56a6.78,6.78,0,0,0,6.14,0C349.72,298.52,349.72,296.93,348,296Z" transform="translate(-85.19 -29.51)"/><path class="cls-19" d="M378.28,279.68,311.78,256a10,10,0,0,0-13.09,8.39L294,305a9.23,9.23,0,0,0,3.61,8.41h0a9.19,9.19,0,0,0,8.72,1.3l1.37-.49a9.23,9.23,0,0,0,6-8.39l1-32.78Z" transform="translate(-85.19 -29.51)"/><path class="cls-11" d="M390.74,291.28a3.8,3.8,0,0,1,.71-.16h.06a2.63,2.63,0,0,1,.69,0h0a2.22,2.22,0,0,1,.62.24l-49.11-28.72,0,0-.22-.1-.23-.08-.15,0H343l-.26,0h-.44l-.17,0-.38.08-.16.06-.15.05-.19.07a4.89,4.89,0,0,0-.61.3l-45.22,26.11a7,7,0,0,0-.82.56l-.24.22c-.13.11-.26.21-.39.34l-.16.17-.14.15-.17.18c-.12.14-.24.28-.35.43l-.11.15-.06.08-.12.16c-.09.12-.17.25-.25.37s-.15.24-.22.37l0,0v0l-.18.31L292,293l-.15.33v0c-.06.13-.11.26-.16.39l-.15.41-.06.2,0,.08c0,.06,0,.11,0,.16a4.37,4.37,0,0,0-.12.49c0,.1,0,.2-.05.3l0,.15,0,.15a7.89,7.89,0,0,0-.05.84,3,3,0,0,0,1.26,2.77L341.52,328a3,3,0,0,1-1.26-2.77,6.83,6.83,0,0,1,.08-1,.77.77,0,0,0,0-.15c.06-.32.13-.63.22-.94l0-.09a8.44,8.44,0,0,1,.38-1v0a9.55,9.55,0,0,1,.51-1v0c.19-.31.39-.62.6-.92l.06-.08a9.51,9.51,0,0,1,.64-.76l.14-.15c.17-.18.36-.35.54-.51l.25-.22a7,7,0,0,1,.82-.56l45.22-26.11a4.37,4.37,0,0,1,.8-.37Z" transform="translate(-85.19 -29.51)"/><path class="cls-12" d="M230.61,340.63s0,.57,0,1.39a8.75,8.75,0,0,0,3.53,6.5c4.22,3.15,14.67,9.09,33.88,9.6a9.77,9.77,0,0,0,4.78-1c2-1,4-2.89,3.2-6.28Z" transform="translate(-85.19 -29.51)"/><path class="cls-13" d="M269.67,355.32c-1,.09-2.07.15-3.3.18a71.3,71.3,0,0,1-10.72-.89,47.23,47.23,0,0,1-19.07-7.15c-5.64-3.73-9.8-8.44-.4-11,0,0,8.56-2.25,25,1.3l5.7,1,8.57,1.54a37.63,37.63,0,0,1,1.26,6.23A7.94,7.94,0,0,1,269.67,355.32Z" transform="translate(-85.19 -29.51)"/><path class="cls-14" d="M269.67,355.32c-1,.09-2.07.15-3.3.18,3.08-4.31.8-16.64.52-16.7l8.57,1.54a37.63,37.63,0,0,1,1.26,6.23A7.94,7.94,0,0,1,269.67,355.32Z" transform="translate(-85.19 -29.51)"/><path class="cls-12" d="M245.67,345.73a.78.78,0,0,1-.77-.67c-1-7.94,5-10.35,5.12-10.38a.76.76,0,0,1,1,.44.78.78,0,0,1-.44,1c-.21.08-5,2-4.14,8.75a.77.77,0,0,1-.66.86Z" transform="translate(-85.19 -29.51)"/><path class="cls-12" d="M249.07,346.18a.77.77,0,0,1-.76-.67c-1-7.94,5-10.35,5.11-10.38a.76.76,0,0,1,1,.44.78.78,0,0,1-.44,1c-.21.08-5,2-4.13,8.74a.79.79,0,0,1-.67.87Z" transform="translate(-85.19 -29.51)"/><path class="cls-12" d="M252.54,346.41a.77.77,0,0,1-.77-.67c-1-7.94,5-10.35,5.11-10.38a.77.77,0,0,1,.55,1.44c-.2.08-5,2-4.13,8.75a.77.77,0,0,1-.66.86Z" transform="translate(-85.19 -29.51)"/><polygon class="cls-12" points="161.84 323.98 160.52 321.24 169.27 317.77 172.15 318.4 163.64 322.09 164.74 324.74 161.84 323.98"/><polygon class="cls-12" points="167.15 325.49 165.83 322.74 174.57 319.28 177.46 319.91 168.95 323.59 170.05 326.24 167.15 325.49"/><path class="cls-20" d="M258.93,335.46l12.18-56.4c1.4-6.52,7.66-14.3,19.63-12.43l87.54,13.05s1.51,10.28-26.66,22.76a18.54,18.54,0,0,1-13.3-.08l-41.59-16.61a4,4,0,0,0-5.54,2.65l-12.83,51a9.24,9.24,0,0,1-7.57,6.87l-1.42.22a9.25,9.25,0,0,1-8.36-3.07h0A9.25,9.25,0,0,1,258.93,335.46Z" transform="translate(-85.19 -29.51)"/><path class="cls-21" d="M165.21,262.22c0,.06,0,.12,0,.18a.74.74,0,0,1,0,.14,1,1,0,0,1,0,.17l-.06.13L165,263l-.08.12-.13.2-.09.11a2.84,2.84,0,0,1-.24.26l-.09.09-.17.14-.16.12-.2.14-.21.13a6.22,6.22,0,0,1-.78.37l-.22.09-.52.16-.56.14-.68.11-.17,0c-.31,0-.62,0-.94,0h-.15c-.31,0-.62,0-.93,0l-.14,0c-.3,0-.6-.09-.9-.15l-.15,0q-.41-.11-.78-.24l-.14,0a6.66,6.66,0,0,1-.85-.4A2.82,2.82,0,0,1,154,262l-.37,88.72a2.8,2.8,0,0,0,1.65,2.3,5.39,5.39,0,0,0,.8.39h0l.14.05.49.17.28.07.16,0,.14,0a5,5,0,0,0,.56.09l.2,0h.14l.2,0,.55,0h.57c.21,0,.42,0,.62,0h.08l.17,0,.47-.07.2-.05.56-.14.3-.07.23-.09.22-.08a7,7,0,0,0,.78-.37l.06,0,.15-.1.2-.13.16-.13.17-.14,0,0,.06-.06c.09-.08.16-.17.24-.25l0-.06,0-.06a2.14,2.14,0,0,0,.13-.19l0-.08s0,0,0,0a.89.89,0,0,0,.08-.17.47.47,0,0,0,.05-.1s0,0,0,0a1,1,0,0,0,.05-.16.53.53,0,0,0,0-.12,0,0,0,0,1,0,0c0-.05,0-.11,0-.17s0-.08,0-.12v-.05l.37-88.71C165.22,262.11,165.21,262.17,165.21,262.22Z" transform="translate(-85.19 -29.51)"/><path class="cls-22" d="M163.57,259.75a8.73,8.73,0,0,0-7.9,0c-2.18,1.27-2.17,3.32,0,4.59a8.72,8.72,0,0,0,7.91,0C165.78,263.07,165.76,261,163.57,259.75Z" transform="translate(-85.19 -29.51)"/><path class="cls-21" d="M229.1,296.55c0,.06,0,.12,0,.18s0,.09,0,.14a1.09,1.09,0,0,1,0,.17.69.69,0,0,1-.05.13,1.51,1.51,0,0,1-.09.18l-.07.12-.13.2-.09.11a2.84,2.84,0,0,1-.24.26l-.09.09-.17.14-.16.12-.2.14-.21.13a7,7,0,0,1-.78.37l-.22.09-.53.16-.56.14-.67.11-.17,0c-.31,0-.63.05-.94.05h-.15c-.31,0-.62,0-.93-.05l-.14,0a8.44,8.44,0,0,1-.9-.15l-.16,0c-.26-.07-.52-.15-.77-.24l-.14,0a6.66,6.66,0,0,1-.85-.4,2.82,2.82,0,0,1-1.65-2.31l-.37,88.72a2.77,2.77,0,0,0,1.64,2.3,6.73,6.73,0,0,0,.81.39h0l.14.05.5.17.28.06.16,0,.14,0a5.25,5.25,0,0,0,.55.09l.21,0h.14l.2,0,.55,0h.57c.21,0,.42,0,.62,0h.07l.17,0,.48-.07.2-.05.56-.14.3-.07.22-.09.22-.08a5.62,5.62,0,0,0,.78-.37l.07,0,.14-.1.21-.13.15-.13.17-.14,0,0,.06-.06.23-.25.06-.06,0-.06.14-.19a.56.56,0,0,1,.05-.08l0-.05a.89.89,0,0,0,.08-.17.47.47,0,0,0,.05-.1s0,0,0,0,0-.11,0-.16l0-.12v0a.88.88,0,0,0,0-.17.5.5,0,0,0,0-.12v0l.37-88.71C229.11,296.44,229.1,296.5,229.1,296.55Z" transform="translate(-85.19 -29.51)"/><path class="cls-22" d="M227.46,294.08a8.73,8.73,0,0,0-7.9,0c-2.18,1.27-2.17,3.32,0,4.59a8.72,8.72,0,0,0,7.91,0C229.66,297.4,229.65,295.35,227.46,294.08Z" transform="translate(-85.19 -29.51)"/><path class="cls-21" d="M307.22,172.83a1.1,1.1,0,0,1,0,.18.7.7,0,0,1,0,.14l-.05.17-.06.13a1.42,1.42,0,0,1-.08.18l-.07.12a2.43,2.43,0,0,1-.14.2l-.09.11a2.73,2.73,0,0,1-.23.25l-.1.1-.17.14-.15.12-.2.14-.22.13a5.62,5.62,0,0,1-.78.37l-.21.08a4.64,4.64,0,0,1-.53.16,5.09,5.09,0,0,1-.56.14c-.22.05-.45.09-.68.12l-.17,0c-.31,0-.62,0-.93.06h-.16c-.31,0-.62,0-.92,0l-.14,0q-.46-.06-.9-.15l-.16,0q-.41-.1-.78-.24l-.13,0a6.18,6.18,0,0,1-.86-.41,2.76,2.76,0,0,1-1.64-2.3l-.38,76.44a2.82,2.82,0,0,0,1.65,2.31,6,6,0,0,0,.81.38l0,0,.14,0,.49.17.29.07.15,0,.15,0,.55.1.2,0,.14,0,.2,0,.55,0h.58l.62,0h.07l.17,0,.47-.06.21-.05.56-.14.29-.08.23-.08.22-.09a6.22,6.22,0,0,0,.78-.37l.07,0,.14-.09.2-.14.16-.12.17-.14,0,0,.05-.06a2.84,2.84,0,0,0,.24-.26l.05-.05a.21.21,0,0,0,0-.06l.13-.2.06-.08s0,0,0,0,.05-.12.08-.17a.54.54,0,0,1,.05-.11,0,0,0,0,1,0,0,1,1,0,0,0,0-.17s0-.07,0-.11v0a1.1,1.1,0,0,0,0-.18s0-.07,0-.11v0l.38-76.44A.88.88,0,0,1,307.22,172.83Z" transform="translate(-85.19 -29.51)"/><path class="cls-22" d="M305.59,170.36a8.75,8.75,0,0,0-7.91,0c-2.17,1.27-2.17,3.32,0,4.58a8.69,8.69,0,0,0,7.91,0C307.79,173.68,307.78,171.63,305.59,170.36Z" transform="translate(-85.19 -29.51)"/><path class="cls-21" d="M356,201.09a1,1,0,0,1,0,.17l0,.15c0,.05,0,.11-.05.16l-.06.14a.89.89,0,0,1-.08.17c0,.05-.05.09-.07.13l-.14.19a.94.94,0,0,1-.09.12l-.23.25-.1.09-.17.14-.15.13-.21.13-.21.14a5.62,5.62,0,0,1-.78.37l-.22.08c-.16.06-.34.11-.52.16l-.56.14c-.22.05-.45.09-.68.12l-.17,0c-.31,0-.62,0-.94,0h-.15c-.31,0-.62,0-.92,0h-.14a8.44,8.44,0,0,1-.9-.16l-.16,0a6.41,6.41,0,0,1-.78-.23l-.14-.05a6,6,0,0,1-.85-.4,2.81,2.81,0,0,1-1.65-2.3l-.37,76.44a2.8,2.8,0,0,0,1.65,2.3,5.39,5.39,0,0,0,.8.39h.05l.14,0,.49.17.29.07.15,0,.14,0,.56.1.2,0h.14l.2,0,.55,0h.58c.2,0,.41,0,.62,0h.07l.17,0,.47-.07.2-.05.57-.14.29-.07.23-.09.22-.08a6.22,6.22,0,0,0,.78-.37l.07,0,.14-.1.2-.13.16-.13.17-.14,0,0,.05-.06a2.77,2.77,0,0,0,.24-.25l.05-.06,0-.06a2.14,2.14,0,0,0,.13-.19l.06-.08s0,0,0-.05.05-.11.08-.17l.05-.1a.08.08,0,0,1,0,0,.94.94,0,0,0,0-.16s0-.08,0-.12v0c0-.05,0-.11,0-.17s0-.08,0-.12v-.05l.38-76.44A1,1,0,0,1,356,201.09Z" transform="translate(-85.19 -29.51)"/><path class="cls-22" d="M354.35,198.62a8.69,8.69,0,0,0-7.91,0c-2.17,1.26-2.17,3.32,0,4.58a8.75,8.75,0,0,0,7.91,0C356.55,201.93,356.54,199.88,354.35,198.62Z" transform="translate(-85.19 -29.51)"/><path class="cls-12" d="M360.18,199.26a2.13,2.13,0,0,1,0,.25,1.09,1.09,0,0,1,0,.26,1.42,1.42,0,0,1-.05.22,2.33,2.33,0,0,1-.07.25l-.09.21c0,.08-.07.17-.12.26a1.74,1.74,0,0,1-.11.18c-.06.1-.13.2-.2.3l-.14.17a3.09,3.09,0,0,1-.35.38l-.14.14-.26.21c-.08.06-.15.13-.24.19l-.3.2-.32.2-56.51,32.84-1.26.75c-.43.26-.85.52-1.26.79l-.22.13c-.77.49-1.52,1-2.26,1.49l-.43.3c-.72.5-1.42,1-2.1,1.52l-.35.26c-.68.52-1.34,1-2,1.57l-.1.08c-.66.55-1.3,1.1-1.92,1.66l-.35.31-.31.28-1.53,1.47-.14.15c-.53.53-1,1.07-1.53,1.61l-.49.54c-.38.44-.76.88-1.13,1.33l-.43.53-.24.28c-.37.48-.74,1-1.09,1.46l-.22.31c-.39.56-.77,1.12-1.12,1.68-.06.09-.12.17-.17.26-.3.48-.59.95-.86,1.43l-.23.44-.18.33q-.49.91-.93,1.86a2.55,2.55,0,0,1-.13.29c-.28.63-.54,1.25-.78,1.88a.24.24,0,0,0,0,.08l-.05.12c-.25.7-.49,1.4-.69,2.1h0c-.21.71-.38,1.41-.52,2.12a.83.83,0,0,0,0,.15.31.31,0,0,1,0,.08c-.14.7-.25,1.41-.34,2.12-.06.53-.15,1.06-.26,1.58a1.6,1.6,0,0,1,0,.21c-.1.49-.22,1-.35,1.47l-.18.57c-.12.37-.23.73-.36,1.1l-.25.63c-.14.36-.29.71-.45,1.06s-.2.44-.31.66l-.53,1-.44.79-.17.3c-.27.43-.54.87-.84,1.3l-.14.21c-.27.39-.56.79-.86,1.18l-.17.22c-.34.44-.7.88-1.07,1.31l-.25.28q-.45.51-.93,1l-.37.38c-.34.35-.7.7-1.07,1.05l-.22.21-.47.42-1.2,1.05-.66.53-1.13.89-.77.56c-.38.28-.77.55-1.16.82l-.84.56-1.24.79-1.36.83c-.94.54-1.91,1.06-2.89,1.56l-.86.43c-.76.38-1.54.74-2.33,1.1l-.79.36c-1,.44-2.07.87-3.14,1.27-.18.08-.38.14-.57.21-.89.33-1.8.65-2.72,1l-1.14.37-1.53.46-1.3.37c-.52.15-1,.29-1.57.42s-.87.23-1.32.33l-1.6.37-1.33.3-1.64.32-1.27.24c-1.18.2-2.36.4-3.55.56l-.51.07c-1,.14-2.08.26-3.13.37l-1.2.12-2,.17-1.28.08c-.7.05-1.4.08-2.1.11l-1.2,0-1.83,0h-1.29l-2,0h-1.17l-1.8-.07-1.25-.06c-.65,0-1.29-.08-1.94-.13l-1.11-.07-2.29-.23-.73-.07c-1-.11-2-.24-3-.38l-.44-.07c-.87-.12-1.73-.26-2.59-.41l-1.06-.19-1.95-.37-1-.22-2.12-.48-1.16-.29c-.64-.17-1.28-.33-1.91-.51l-1.07-.31c-1-.29-2-.59-3-.92l-.52-.17c-1.13-.38-2.24-.79-3.33-1.21l-1.32-.53-1-.44c-.5-.21-1-.43-1.47-.65l-1-.44c-.53-.25-1-.51-1.57-.78l-.77-.38c-.77-.41-1.52-.82-2.27-1.25-12.28-7.2-18.32-16.52-18.3-25.83l0,8c0,9.3,6,18.63,18.3,25.83.74.42,1.5.84,2.27,1.24l.77.39,1.57.78.95.43,1.46.66,1.05.43,1,.41a3,3,0,0,0,.32.12c1.09.43,2.2.83,3.32,1.21l.53.18c1,.32,2,.63,3,.92l.49.15c.19.06.39.1.58.15.63.18,1.27.35,1.91.51l1.16.29c.7.17,1.41.33,2.12.48l.79.18.21,0,1.93.37,1.08.2,2.55.4.46.07h0c1,.15,2,.27,3,.38l.74.08c.76.08,1.52.16,2.29.22h.06l1.05.08,1.94.13,1.25.05,1.8.07h1.16l2,0,1.28,0,1.84,0H217l.85-.05,2.11-.1,1.28-.09,2-.17.71-.06.49-.06c1.05-.11,2.09-.23,3.14-.37l.49-.06c1.2-.17,2.38-.36,3.56-.57l.33,0,.94-.19,1.64-.32,1.33-.29,1.6-.37,1.32-.34,1.57-.41,1.3-.38,1.53-.46c.22-.07.45-.13.67-.21l.47-.16c.92-.31,1.83-.62,2.72-1l.57-.2c1.06-.41,2.11-.84,3.13-1.28l.8-.36c.79-.35,1.56-.72,2.33-1.1l.86-.42c1-.51,2-1,2.89-1.57l.87-.52.49-.31c.42-.26.83-.52,1.23-.79s.57-.37.84-.56.79-.54,1.17-.82.51-.37.76-.56.76-.59,1.13-.88l.67-.54c.41-.34.8-.69,1.19-1.05l.41-.35.07-.07.22-.21c.37-.35.72-.7,1.07-1.05l.37-.38c.32-.34.62-.67.92-1,.09-.1.18-.19.26-.29.34-.39.66-.78,1-1.17a.64.64,0,0,1,.1-.13c.06-.08.11-.16.17-.23.3-.39.58-.78.85-1.18l.15-.21c.3-.43.57-.86.84-1.3.05-.1.11-.19.17-.29l.23-.4c.08-.13.13-.26.21-.39.18-.35.36-.69.53-1s.21-.43.31-.65.3-.71.45-1.07c.05-.14.12-.28.17-.42a1.72,1.72,0,0,0,.07-.21c.14-.36.25-.73.37-1.1.05-.19.12-.38.17-.57.14-.48.26-1,.36-1.46,0-.06,0-.13.05-.2h0c.11-.53.19-1.06.26-1.59.09-.74.21-1.47.36-2.2l0-.15c.15-.71.32-1.41.52-2.11v0c.2-.7.43-1.4.69-2.09l0-.13q.38-1,.81-1.95l.13-.3q.43-.93.93-1.86l.17-.33c.35-.63.71-1.25,1.09-1.87.06-.09.12-.17.17-.26.36-.56.73-1.12,1.13-1.67a3.62,3.62,0,0,1,.22-.32c.42-.59.86-1.16,1.32-1.74l.44-.53c.37-.45.74-.89,1.13-1.33l.49-.54c.49-.54,1-1.08,1.53-1.61l.14-.15c.59-.59,1.21-1.17,1.84-1.74l.35-.32c.62-.56,1.25-1.11,1.91-1.65l.11-.09c.64-.53,1.31-1.05,2-1.56l.35-.27c.69-.51,1.39-1,2.11-1.52l.43-.3c.74-.5,1.49-1,2.26-1.49l.21-.13c.83-.52,1.67-1,2.53-1.53l56.51-32.84.1-.06.22-.15a3.13,3.13,0,0,0,.3-.2l.24-.19.25-.21.06,0,.08-.1a4.27,4.27,0,0,0,.36-.38s.06-.05.08-.08l.06-.09.19-.29.09-.13,0-.06.12-.26.07-.15s0,0,0-.06a1.82,1.82,0,0,0,.07-.25c0-.05,0-.11.05-.17v0a2.48,2.48,0,0,0,0-.27,1,1,0,0,0,0-.17v-.07h0Z" transform="translate(-85.19 -29.51)"/><path class="cls-10" d="M357.69,195.79l-51.78-29.9a13.13,13.13,0,0,0-11.9,0l-124.93,72.6c-24.42,14.2-25,37.31-.27,51.8,24.63,14.22,64.42,14.22,88.88,0,11-6.42,17.06-14.63,18.1-23,1.48-12,10.77-23.24,25.43-31.77l56.51-32.84C361,200.78,361,197.69,357.69,195.79Z" transform="translate(-85.19 -29.51)"/><path class="cls-23" d="M298.88,209.12c1,3.89,5.67,6,5.67,6a14.75,14.75,0,0,0,7.61,1.46c2.28-.27,4.24-1.69,4.24-4.14a7.58,7.58,0,0,0-.65-3.29l-15.23-3-1.57-.31A6.22,6.22,0,0,0,298.88,209.12Z" transform="translate(-85.19 -29.51)"/><path class="cls-24" d="M298.88,209.12a7.44,7.44,0,0,0,1-.1l.66-2.87-1.57-.31A6.22,6.22,0,0,0,298.88,209.12Z" transform="translate(-85.19 -29.51)"/><g class="cls-1"><path class="cls-25" d="M303.84,203.5h0Z" transform="translate(-85.19 -29.51)"/><path class="cls-25" d="M304.59,203.5h0Z" transform="translate(-85.19 -29.51)"/><path class="cls-25" d="M305,203.52h0Z" transform="translate(-85.19 -29.51)"/><path class="cls-24" d="M299.75,204.34l.35.2.58-.29-.64-.39a.28.28,0,0,0-.29,0h0A.29.29,0,0,0,299.75,204.34Z" transform="translate(-85.19 -29.51)"/><path class="cls-25" d="M299.5,205a.6.6,0,0,0-.08.08A.3.3,0,0,1,299.5,205Z" transform="translate(-85.19 -29.51)"/><path class="cls-25" d="M299.38,205.09l0,0Z" transform="translate(-85.19 -29.51)"/><path class="cls-25" d="M299.22,205.3l0-.05Z" transform="translate(-85.19 -29.51)"/><path class="cls-12" d="M299.25,205.35c-1.1,1.65.14,4,3.36,5.91,3.94,2.29,9.29,2.9,11.94,1.36s1.63-4.63-2.31-6.92a17.12,17.12,0,0,0-7-2.17,16.64,16.64,0,0,1,3.18.57,6.37,6.37,0,0,1-3,3.08,16.38,16.38,0,0,1-5.49,1.84C298.77,207.7,298.56,206.39,299.25,205.35Z" transform="translate(-85.19 -29.51)"/><path class="cls-11" d="M300.3,204.34l-.06,0h0l-.05,0-.06,0h0l0,0-.06,0h0l0,0h0l0,0h0l0,0h0l0,0v0l0,0h0l0,0,0,0,0,0,0,0v0l0,0,0,0h0l0,0-.08.09c-.94,1.08-.74,2.55.44,4a16.59,16.59,0,0,0,5.41-1.79l-1.19-.7a3.45,3.45,0,0,1-1.86-.65c-.81-.47-1.3-.94-1.11-1.07Z" transform="translate(-85.19 -29.51)"/><path class="cls-23" d="M300.3,204.34l.81.47c.21-.13,1.05.16,1.87.64s1.31,1,1.1,1.08l1.19.7a17.65,17.65,0,0,1-5.41,1.79,16.38,16.38,0,0,0,5.49-1.84,6.37,6.37,0,0,0,3-3.08,15,15,0,0,0-5.33-.56l-.19,0h-.07l-.1,0h-.87l-.09,0-.08,0-.09,0-.07,0-.09,0-.06,0-.08,0-.07,0-.07,0-.08,0-.07,0-.08,0-.06,0-.08,0-.06,0-.07,0-.07,0-.06,0-.07,0-.06,0Z" transform="translate(-85.19 -29.51)"/><path class="cls-24" d="M301.12,204.8h0c-.19.13.3.6,1.11,1.07a3.42,3.42,0,0,0,1.85.65h0c.21-.12-.28-.61-1.1-1.08A3.34,3.34,0,0,0,301.12,204.8Z" transform="translate(-85.19 -29.51)"/></g><path class="cls-12" d="M310.23,224.17l-23.79-13.74a4.28,4.28,0,0,0-3.85,0L216.05,249.1c-1.06.62-1.05,1.61,0,2.23l23.79,13.73a4.21,4.21,0,0,0,3.83,0l66.54-38.67A1.17,1.17,0,0,0,310.23,224.17Z" transform="translate(-85.19 -29.51)"/><path class="cls-24" d="M311,225.56v0a1.58,1.58,0,0,1-.13.26l0,0a1.6,1.6,0,0,1-.22.24.94.94,0,0,1-.19.14l-.17.12-66.54,38.67a2.85,2.85,0,0,1-.53.24l-.21.06-.27.07-.33.05h-.08a3.44,3.44,0,0,1-.46,0h-.07l-.45,0h-.07l-.43-.08-.08,0-.38-.11-.06,0a2.23,2.23,0,0,1-.41-.2l-23.79-13.73a2,2,0,0,1-.61-.53,1,1,0,0,1-.2-.59v1.48a1.38,1.38,0,0,0,.8,1.13l23.79,13.73a3.54,3.54,0,0,0,.39.19h0l.07,0,.24.08.14,0,.07,0,.08,0,.26.05h.17l.1,0h.54l.3,0h.11l.24,0,.1,0,.27-.07.14,0,.06,0a3.28,3.28,0,0,0,.54-.24l66.54-38.67,0,0,.14-.1.19-.14h0a1.54,1.54,0,0,0,.17-.19s0,0,0,0l0,0a.35.35,0,0,1,.05-.08l.07-.15v-.06l0-.1a.77.77,0,0,0,0-.15v-1.51A.84.84,0,0,1,311,225.56Z" transform="translate(-85.19 -29.51)"/><polygon class="cls-26" points="157.57 229.9 161.27 232.04 165.28 229.71 161.58 227.57 157.57 229.9"/><polygon class="cls-26" points="152.76 232.7 156.47 234.83 160.48 232.5 156.78 230.37 152.76 232.7"/><polygon class="cls-26" points="157.4 224.89 148.35 230.15 152.05 232.29 161.1 227.03 157.4 224.89"/><polygon class="cls-26" points="175.49 218.7 171.79 216.56 167.78 218.89 171.48 221.03 175.49 218.7"/><polygon class="cls-26" points="178.21 202.66 181.91 204.8 185.92 202.47 182.22 200.34 178.21 202.66"/><polygon class="cls-26" points="163.26 206.29 166.96 208.43 170.97 206.1 167.27 203.96 163.26 206.29"/><polygon class="cls-26" points="173.82 199.37 171.36 197.95 168.19 199.79 170.66 201.21 173.82 199.37"/><polygon class="cls-26" points="169.82 201.7 167.35 200.28 164.17 202.12 166.64 203.54 169.82 201.7"/><polygon class="cls-26" points="168.06 203.5 171.76 205.64 175.77 203.31 172.07 201.17 168.06 203.5"/><polygon class="cls-26" points="173.5 205.41 177.2 207.54 181.21 205.21 177.51 203.08 173.5 205.41"/><polygon class="cls-26" points="188.53 206.03 184.83 203.89 180.81 206.22 184.51 208.36 188.53 206.03"/><polygon class="cls-26" points="183.72 208.82 180.02 206.68 176.01 209.01 179.72 211.15 183.72 208.82"/><polygon class="cls-26" points="189.82 210.37 186.12 208.23 182.11 210.56 185.81 212.7 189.82 210.37"/><polygon class="cls-26" points="168.78 208.15 172.48 210.28 176.49 207.95 172.79 205.82 168.78 208.15"/><polygon class="cls-26" points="178.92 211.61 175.22 209.47 171.21 211.8 174.91 213.94 178.92 211.61"/><polygon class="cls-26" points="180.27 215.92 176.57 213.78 172.56 216.11 176.26 218.25 180.27 215.92"/><polygon class="cls-26" points="174.12 214.4 170.42 212.26 166.41 214.59 170.11 216.73 174.12 214.4"/><polygon class="cls-26" points="159.35 213.63 163.05 215.76 167.06 213.43 163.36 211.3 159.35 213.63"/><polygon class="cls-26" points="154.63 216.37 158.33 218.5 162.35 216.17 158.65 214.04 154.63 216.37"/><polygon class="cls-26" points="169.31 217.19 165.61 215.05 161.61 217.38 165.31 219.52 169.31 217.19"/><polygon class="cls-26" points="164.51 219.98 160.81 217.84 156.81 220.17 160.51 222.31 164.51 219.98"/><polygon class="cls-26" points="170.71 221.47 167.01 219.34 163 221.66 166.7 223.8 170.71 221.47"/><polygon class="cls-26" points="165.91 224.26 162.21 222.12 158.21 224.45 161.91 226.59 165.91 224.26"/><polygon class="cls-26" points="153.65 211.87 157.35 214.01 161.37 211.68 157.66 209.54 153.65 211.87"/><polygon class="cls-26" points="157.79 208.69 155.32 207.27 152.14 209.11 154.61 210.54 157.79 208.69"/><polygon class="cls-26" points="153.78 211.02 151.31 209.6 148.14 211.44 150.6 212.87 153.78 211.02"/><polygon class="cls-26" points="148.85 214.66 152.55 216.8 156.56 214.47 152.86 212.33 148.85 214.66"/><polygon class="cls-26" points="149.77 213.35 147.3 211.93 144.12 213.77 146.59 215.2 149.77 213.35"/><polygon class="cls-26" points="145.75 215.68 143.28 214.26 140.12 216.1 142.58 217.53 145.75 215.68"/><polygon class="cls-26" points="144.05 217.46 147.75 219.59 151.76 217.26 148.06 215.12 144.05 217.46"/><polygon class="cls-26" points="141.75 218.01 139.28 216.59 136.11 218.43 138.57 219.86 141.75 218.01"/><polygon class="cls-26" points="149.92 219.11 153.62 221.25 157.63 218.91 153.93 216.78 149.92 219.11"/><polygon class="cls-26" points="135.27 218.92 132.09 220.76 134.56 222.19 137.74 220.34 135.27 218.92"/><polygon class="cls-26" points="139.25 220.24 142.95 222.38 146.96 220.05 143.26 217.91 139.25 220.24"/><polygon class="cls-26" points="152.92 221.65 149.22 219.52 145.2 221.85 148.9 223.99 152.92 221.65"/><polygon class="cls-26" points="138.41 220.73 135.24 222.58 138.94 224.71 142.11 222.87 138.41 220.73"/><polygon class="cls-26" points="159.71 222.77 156.01 220.63 152 222.96 155.7 225.1 159.71 222.77"/><polygon class="cls-26" points="144.42 222.31 139.61 225.1 143.31 227.24 148.12 224.44 144.42 222.31"/><polygon class="cls-26" points="151.33 223.35 143.98 227.63 147.68 229.76 155.03 225.49 151.33 223.35"/><polygon class="cls-26" points="185.05 213.14 181.34 211 177.33 213.34 181.03 215.47 185.05 213.14"/><polygon class="cls-26" points="207.1 203.49 208.76 204.44 213.23 201.85 211.57 200.89 207.1 203.49"/><polygon class="cls-26" points="212 200.19 216.47 197.59 214.81 196.64 210.35 199.23 212 200.19"/><polygon class="cls-26" points="207.73 194.86 204.03 192.73 200.02 195.06 203.72 197.19 207.73 194.86"/><polygon class="cls-26" points="209.78 198.77 219.41 193.17 215.71 191.03 206.08 196.63 209.78 198.77"/><polygon class="cls-26" points="208.93 199.26 205.23 197.12 201.22 199.45 204.92 201.59 208.93 199.26"/><polygon class="cls-26" points="181.85 194.71 179.38 193.28 176.21 195.13 178.68 196.55 181.85 194.71"/><polygon class="cls-26" points="177.66 197.92 181.37 200.06 185.37 197.73 181.67 195.59 177.66 197.92"/><polygon class="cls-26" points="200.07 194.25 196.37 192.12 192.36 194.44 196.06 196.58 200.07 194.25"/><polygon class="cls-26" points="187.65 197.19 191.34 199.32 195.35 196.99 191.65 194.85 187.65 197.19"/><polygon class="cls-26" points="202.93 197.65 199.23 195.52 195.22 197.85 198.92 199.98 202.93 197.65"/><polygon class="cls-26" points="182.93 199.93 186.63 202.06 190.64 199.73 186.94 197.6 182.93 199.93"/><polygon class="cls-26" points="198.13 200.45 194.43 198.31 190.42 200.64 194.12 202.78 198.13 200.45"/><polygon class="cls-26" points="204.15 202.04 200.45 199.9 196.44 202.23 200.15 204.37 204.15 202.04"/><polygon class="cls-26" points="193.33 203.24 189.63 201.1 185.62 203.43 189.32 205.56 193.33 203.24"/><polygon class="cls-26" points="199.38 204.81 195.68 202.68 191.66 205.01 195.36 207.15 199.38 204.81"/><polygon class="cls-26" points="194.6 207.59 190.9 205.45 186.89 207.78 190.59 209.92 194.6 207.59"/><polygon class="cls-26" points="172.17 221.42 175.87 223.56 198.15 210.61 194.45 208.47 172.17 221.42"/><polygon class="cls-26" points="167.19 224.32 170.89 226.45 174.89 224.12 171.19 221.99 167.19 224.32"/><polygon class="cls-26" points="162.38 227.11 166.08 229.25 170.09 226.92 166.39 224.78 162.38 227.11"/><polygon class="cls-26" points="195.29 207.99 198.99 210.12 203 207.79 199.3 205.66 195.29 207.99"/><polygon class="cls-26" points="200.09 205.19 203.79 207.33 207.81 205 204.1 202.86 200.09 205.19"/><polygon class="cls-26" points="222.14 194.75 217.68 197.34 219.34 198.3 223.8 195.7 222.14 194.75"/><polygon class="cls-26" points="212.39 200.41 214.05 201.37 218.51 198.78 216.86 197.82 212.39 200.41"/><polygon class="cls-26" points="201.9 183.06 199.43 181.63 196.26 183.47 198.73 184.9 201.9 183.06"/><polygon class="cls-26" points="197.88 185.39 195.42 183.96 192.25 185.81 194.71 187.23 197.88 185.39"/><polygon class="cls-26" points="200.51 188.93 206.27 185.58 202.57 183.45 196.81 186.79 200.51 188.93"/><polygon class="cls-26" points="193.88 187.72 191.41 186.29 188.24 188.14 190.71 189.56 193.88 187.72"/><polygon class="cls-26" points="192.07 189.55 195.77 191.68 199.78 189.35 196.08 187.22 192.07 189.55"/><polygon class="cls-26" points="187.27 192.34 190.97 194.47 194.98 192.14 191.28 190.01 187.27 192.34"/><polygon class="cls-26" points="205.38 191.17 210.64 188.11 206.94 185.97 201.68 189.03 205.38 191.17"/><polygon class="cls-26" points="208.53 194.4 215.01 190.63 211.31 188.5 204.83 192.26 208.53 194.4"/><polygon class="cls-26" points="164.07 210.89 167.77 213.02 171.78 210.69 168.08 208.56 164.07 210.89"/><polygon class="cls-26" points="197.07 191.7 200.78 193.84 204.79 191.51 201.09 189.37 197.07 191.7"/><polygon class="cls-26" points="161.8 206.36 159.33 204.94 156.16 206.78 158.63 208.2 161.8 206.36"/><polygon class="cls-26" points="158.46 209.08 162.16 211.22 166.16 208.89 162.46 206.75 158.46 209.08"/><polygon class="cls-26" points="172.86 200.71 176.56 202.85 180.57 200.51 176.87 198.38 172.86 200.71"/><polygon class="cls-26" points="182.47 195.13 186.16 197.27 190.18 194.93 186.48 192.8 182.47 195.13"/><polygon class="cls-26" points="165.8 204.03 163.34 202.61 160.16 204.45 162.63 205.88 165.8 204.03"/><polygon class="cls-26" points="177.84 197.04 175.37 195.61 172.19 197.46 174.66 198.88 177.84 197.04"/><polygon class="cls-26" points="185.85 192.38 183.39 190.96 180.22 192.8 182.68 194.22 185.85 192.38"/><polygon class="cls-26" points="189.87 190.05 187.4 188.62 184.22 190.47 186.69 191.89 189.87 190.05"/><polygon class="cls-24" points="137.88 197.9 128.74 192.59 128.75 194.89 137.89 200.19 137.88 197.9"/><polygon class="cls-23" points="167.99 180.51 137.88 197.9 137.89 200.19 168 182.81 167.99 180.51"/><polygon class="cls-12" points="158.86 175.21 128.74 192.59 137.88 197.9 167.99 180.51 158.86 175.21"/><polygon class="cls-23" points="155.02 169.49 143.98 175.86 144.01 190.68 155.05 184.31 155.02 169.49"/><polygon class="cls-24" points="143.98 174.99 141.73 173.68 141.76 189.38 144.01 190.68 143.98 174.99"/><path class="cls-27" d="M242.85,192.56v-.12h0v-.14h0v-.09l0,0v0h0v0l0,0v0l0,0,0,0h0l0-.06a.22.22,0,0,1-.05-.08h0l0,0,0,0,0,0,0,0h0l0,0,0,0,0,0,0,0,0,0h0l0,0,0,0,0,0,0,0h0l0,0h-.34l0,0-.06,0-17.4,10.12a.21.21,0,0,1,.1,0h.13l.12,0h0l.14.06.15.11h0l.15.14.11.15h0l.09.16h0a.89.89,0,0,1,.08.17h0a1,1,0,0,1,0,.16h0a.94.94,0,0,1,0,.16h0v.16h0a.68.68,0,0,1,0,.14h0a.43.43,0,0,1-.05.12l17.41-10.11v0l0,0v0h0v-.13h0Z" transform="translate(-85.19 -29.51)"/><path class="cls-12" d="M279.93,114.19c0-1.94-1.38-2.72-3.07-1.75l-89.7,51.79a6.71,6.71,0,0,0-3,5.28l.17,59.2c0,1.95,1.38,2.73,3.06,1.76l89.71-51.79a6.77,6.77,0,0,0,3.05-5.29Z" transform="translate(-85.19 -29.51)"/><path class="cls-24" d="M277.36,112.2l.22-.07.13,0,.13,0,.16,0h.09a1.33,1.33,0,0,1,.2,0h0a.83.83,0,0,1,.22,0h.06l.16.05h.06l.2.1-3.42-2h0l-.16-.08h0l-.05,0-.08,0-.09,0h-.08a1.13,1.13,0,0,0-.18,0h-.44l-.07,0-.13,0h-.07l-.06,0-.22.07-.08,0,0,0a2.69,2.69,0,0,0-.38.19l-89.71,51.79a3.55,3.55,0,0,0-.47.32l-.08.06a5.08,5.08,0,0,0-.43.38l0,0-.06.07a2.09,2.09,0,0,0-.2.22.23.23,0,0,0-.07.07l0,.06-.12.14-.08.1-.06.08-.08.11-.06.08a.71.71,0,0,1-.1.14l-.05.09,0,0-.16.26h0l0,.06-.1.18-.05.09,0,.09a.59.59,0,0,1,0,.08l-.1.22,0,0h0l-.12.27s0,0,0,.06a.3.3,0,0,0,0,.1s0,.09,0,.13l0,.11a.65.65,0,0,0,0,.13.19.19,0,0,0,0,.07.83.83,0,0,0,0,.15s0,.1,0,.15,0,0,0,.06,0,.07,0,.11a2,2,0,0,0,0,.24s0,0,0,.07a.13.13,0,0,0,0,.06,4.89,4.89,0,0,0,0,.54l.17,59.2a2.46,2.46,0,0,0,.52,1.66,1.52,1.52,0,0,0,.37.3l3.41,2a2.14,2.14,0,0,1-.89-2l-.17-59.2a4.84,4.84,0,0,1,0-.53s0-.09,0-.13,0-.17,0-.25l0-.16a1.24,1.24,0,0,0,0-.16l.06-.22s0-.08,0-.13,0-.16.08-.24l0-.1c0-.11.08-.23.13-.34l0,0c0-.1.09-.19.14-.29l.05-.09a1.51,1.51,0,0,1,.15-.28l0-.05.19-.32.06-.08.15-.22a.83.83,0,0,0,.08-.12l.14-.17.12-.15.12-.13a2.09,2.09,0,0,1,.2-.22l.1-.1c.14-.13.28-.26.43-.38l.08-.06c.16-.11.31-.22.48-.32l89.7-51.79.38-.19Z" transform="translate(-85.19 -29.51)"/><polygon class="cls-9" points="194.74 87.74 98.92 143.06 99.08 196.14 194.9 140.82 194.74 87.74"/><polygon class="cls-26" points="192.24 92.43 101.45 144.85 101.58 191.44 192.37 139.03 192.24 92.43"/><path class="cls-24" d="M233.52,199.25a3.11,3.11,0,0,0-1.42,2.45c0,.9.64,1.26,1.43.81a3.1,3.1,0,0,0,1.41-2.45C234.94,199.16,234.3,198.79,233.52,199.25Z" transform="translate(-85.19 -29.51)"/><polygon class="cls-28" points="180 99.5 114.68 137.21 114.81 183.81 180.13 146.1 180 99.5"/><polygon class="cls-29" points="153.65 122.23 141.61 129.19 141.61 130.75 153.66 123.8 153.65 122.23"/><polygon class="cls-29" points="157.11 121.81 177.31 110.15 177.3 108.58 157.1 120.24 157.11 121.81"/><polygon class="cls-26" points="161.74 122.61 177.32 113.62 177.31 112.06 161.74 121.05 161.74 122.61"/><polygon class="cls-29" points="153.68 130.75 153.67 129.19 141.63 136.14 141.63 137.7 153.68 130.75"/><polygon class="cls-26" points="153.72 144.65 153.71 143.08 141.67 150.04 141.67 151.6 153.72 144.65"/><polygon class="cls-29" points="153.74 151.6 153.73 150.03 141.69 156.99 141.69 158.55 153.74 151.6"/><polygon class="cls-26" points="161.82 150.41 177.4 141.42 177.39 139.85 161.82 148.84 161.82 150.41"/><polygon class="cls-30" points="177.4 143.33 157.2 154.99 157.21 156.55 177.41 144.89 177.4 143.33"/><polygon class="cls-26" points="161.8 143.46 177.38 134.47 177.37 132.91 161.8 141.9 161.8 143.46"/><polygon class="cls-31" points="157.19 149.61 177.39 137.94 177.38 136.38 157.18 148.04 157.19 149.61"/><polygon class="cls-30" points="161.78 136.51 177.36 127.52 177.35 125.95 161.78 134.95 161.78 136.51"/><polygon class="cls-29" points="157.17 142.65 177.37 130.99 177.36 129.43 157.16 141.09 157.17 142.65"/><polygon class="cls-26" points="161.76 129.56 177.34 120.57 177.33 119.01 161.76 128 161.76 129.56"/><polygon class="cls-29" points="157.15 135.71 177.35 124.05 177.34 122.48 157.14 134.14 157.15 135.71"/><polygon class="cls-31" points="157.13 128.75 177.33 117.09 177.32 115.53 157.12 127.19 157.13 128.75"/><polygon class="cls-30" points="131.07 168.16 159.52 151.74 159.51 150.18 131.06 166.6 131.07 168.16"/><polygon class="cls-31" points="153.7 137.7 153.69 136.13 141.65 143.09 141.65 144.65 153.7 137.7"/><polygon class="cls-31" points="131.05 161.22 159.5 144.79 159.49 143.23 131.04 159.66 131.05 161.22"/><polygon class="cls-31" points="118.42 177.38 118.42 178.94 138.95 167.1 138.94 165.53 118.42 177.38"/><polygon class="cls-26" points="131.03 154.26 159.48 137.84 159.47 136.28 131.02 152.7 131.03 154.26"/><polygon class="cls-30" points="138.92 158.58 118.4 170.43 118.41 172 138.93 160.15 138.92 158.58"/><polygon class="cls-26" points="131.01 147.32 159.46 130.89 159.45 129.33 131 145.76 131.01 147.32"/><polygon class="cls-26" points="128.65 161.03 118.39 166.96 118.39 168.52 128.66 162.6 128.65 161.03"/><polygon class="cls-29" points="138.9 151.63 118.38 163.48 118.39 165.05 138.91 153.2 138.9 151.63"/><polygon class="cls-30" points="130.99 140.37 159.44 123.94 159.43 122.38 130.98 138.8 130.99 140.37"/><polygon class="cls-30" points="128.63 154.08 118.37 160.01 118.38 161.57 128.64 155.64 128.63 154.08"/><polygon class="cls-29" points="138.88 144.68 118.36 156.53 118.36 158.1 138.89 146.25 138.88 144.68"/><polygon class="cls-30" points="128.61 147.13 118.35 153.06 118.36 154.62 128.62 148.7 128.61 147.13"/><polygon class="cls-26" points="138.86 137.74 118.34 149.58 118.35 151.15 138.87 139.3 138.86 137.74"/><polygon class="cls-29" points="128.59 140.18 118.33 146.11 118.34 147.67 128.6 141.75 128.59 140.18"/><polygon class="cls-26" points="138.84 130.78 118.32 142.63 118.33 144.2 138.85 132.35 138.84 130.78"/><polygon class="cls-26" points="166.09 111.58 118.31 139.16 118.32 140.72 166.1 113.14 166.09 111.58"/><polygon class="cls-29" points="128.67 167.98 118.41 173.91 118.42 175.47 128.68 169.54 128.67 167.98"/><polygon class="cls-26" points="141.71 163.94 141.71 165.5 153.76 158.54 153.75 156.98 141.71 163.94"/><path class="cls-32" d="M197.59,234.29a4.06,4.06,0,0,1,4.37,2.18s1.82,2.52-1.19,11.82Z" transform="translate(-85.19 -29.51)"/><path class="cls-33" d="M200.77,238s1.92.42,0,6.64Z" transform="translate(-85.19 -29.51)"/><path class="cls-34" d="M181.28,238v18.13c0,3,4.36,5.49,9.74,5.49s9.75-2.46,9.75-5.49V238Z" transform="translate(-85.19 -29.51)"/><ellipse class="cls-32" cx="105.83" cy="208.52" rx="9.74" ry="5.49"/><path class="cls-33" d="M200.21,238a3,3,0,0,1-.47,1.55c-1.22,1.94-4.66,3.34-8.72,3.34s-7.49-1.4-8.71-3.34a2.87,2.87,0,0,1-.47-1.55c0-2.7,4.11-4.89,9.18-4.89S200.21,235.34,200.21,238Z" transform="translate(-85.19 -29.51)"/><path class="cls-35" d="M199.74,239.59c-1.22,1.94-4.66,3.34-8.72,3.34s-7.49-1.4-8.71-3.34c1.22-1.94,4.66-3.34,8.71-3.34S198.52,237.65,199.74,239.59Z" transform="translate(-85.19 -29.51)"/><path class="cls-12" d="M192.7,271.1,208,262.26a1.85,1.85,0,0,1,1.71,0l27,15.66a.52.52,0,0,1,0,1l-15.32,8.85a1.91,1.91,0,0,1-1.71,0l-27-15.67C192.22,271.82,192.23,271.38,192.7,271.1Z" transform="translate(-85.19 -29.51)"/><path class="cls-24" d="M192.35,271.64v.07a0,0,0,0,0,0,0v0s0,0,0,0v0l0,0,0,0,0,.06,0,0,0,0,0,0,.05,0,0,0,27,15.67.12.06h0l.1,0h0l.06,0h.16l.14,0h.64l.08,0h0l.13,0h0l.16-.08,15.32-8.85a.9.9,0,0,0,.27-.23.48.48,0,0,0,.09-.27v1.36a.6.6,0,0,1-.35.5l-15.33,8.85-.16.08h0l-.13.05h0l-.07,0h-.65l-.13,0H220l-.07,0h0l-.1,0h0l-.11-.06-27-15.67h0l0,0,0,0,0,0,0,0h0l-.05-.06h0l0,0v0h0l0,0v0h0a0,0,0,0,0,0,0v0h0V273h0v-1.32Z" transform="translate(-85.19 -29.51)"/><polygon class="cls-9" points="124.6 234.01 147.63 247.4 132.74 255.99 109.7 242.61 124.6 234.01"/><path class="cls-26" d="M225.93,281.34a3.2,3.2,0,0,1,2.92,0,.9.9,0,0,1,0,1.7,3.26,3.26,0,0,1-2.92,0A.9.9,0,0,1,225.93,281.34Z" transform="translate(-85.19 -29.51)"/><path class="cls-24" d="M226.36,281.59a2.27,2.27,0,0,1,2.06,0,.64.64,0,0,1,0,1.2,2.33,2.33,0,0,1-2.06,0A.63.63,0,0,1,226.36,281.59Z" transform="translate(-85.19 -29.51)"/><path class="cls-24" d="M199.07,268.45l5.39-3.11a.42.42,0,0,1,.38,0c.1.06.1.15,0,.21l-5.4,3.12a.4.4,0,0,1-.37,0A.12.12,0,0,1,199.07,268.45Z" transform="translate(-85.19 -29.51)"/><path class="cls-24" d="M198,269.14a.4.4,0,0,1,.37,0c.1.06.1.15,0,.21a.4.4,0,0,1-.37,0C197.86,269.29,197.86,269.2,198,269.14Z" transform="translate(-85.19 -29.51)"/><path class="cls-9" d="M243.13,225.73v-.2h0v-.16l0-.05v0h0l0-.05,0,0,0-.05,0,0,0,0h0l0-.05,0-.06,0-.06a.43.43,0,0,1,0-.07h0l-.08-.12a.36.36,0,0,0-.07-.1h0l0-.06,0-.05,0,0,0,0h0l0,0,0-.05,0,0,0,0,0,0h0l0,0,0,0-.05,0,0,0-.05,0h0l0,0,0,0h-.09l0,0h0l0,0h-.37l-.08,0-25.07,14.57.08,0,.06,0h.29l.1,0h0l.1,0h0l.1.06.21.14h0a1.54,1.54,0,0,1,.19.17h0a1.2,1.2,0,0,1,.17.21h0a1.14,1.14,0,0,1,.15.23h0l.12.24h0a2.77,2.77,0,0,1,.1.26h0l.06.26h0a2.29,2.29,0,0,1,0,.25.85.85,0,0,1,0,.23h0a.6.6,0,0,1-.06.19h0a1.27,1.27,0,0,1-.07.12l0,0a.54.54,0,0,1-.12.09l25.07-14.57a.31.31,0,0,0,.11-.09l0,0,0,0a.25.25,0,0,1,0-.07h0l0-.05s0,0,0-.06a.43.43,0,0,0,0-.05v0h0v0a.09.09,0,0,0,0,0v-.15h0Z" transform="translate(-85.19 -29.51)"/><path class="cls-34" d="M218.07,240.34a2.29,2.29,0,0,0-1-1.79.72.72,0,0,0-.74-.07h0a.45.45,0,0,0-.16.15l-2.8,2.61.73,1.11,3.54-1.28a.44.44,0,0,0,.16-.06h0A.73.73,0,0,0,218.07,240.34Z" transform="translate(-85.19 -29.51)"/><path class="cls-20" d="M214.18,242.06a1,1,0,0,0-.47-.82.31.31,0,0,0-.38,0h0l-1.91,2,2.53-.85a.2.2,0,0,0,.13,0h0A.36.36,0,0,0,214.18,242.06Z" transform="translate(-85.19 -29.51)"/><path class="cls-34" d="M244.86,224.77v-.21h0v-.16l0-.05v0h0l0,0,0-.06,0-.05,0,0v0h0l0-.05,0,0,0-.06a.16.16,0,0,0,0-.07h0v0l-.08-.12-.06-.09h0l0-.06,0-.05,0,0,0,0h0l0,0,0,0,0,0-.05,0,0,0h0l0,0-.05,0,0,0,0,0h0l0,0,0,0h0l0,0h-.44l-.06,0h0l-.08,0-1.56.9h.28l0,0h0l0,0H242l0,0,0,0h0l.05,0,0,0,.05,0,0,0,0,0h0l0,0,0,0,0,0,0,.05,0,0h0l0,0,0,0,0,.05,0,.06h0a.36.36,0,0,1,.07.1l.08.12h0a.43.43,0,0,0,0,.07l0,.06,0,.06,0,.05h0l0,0,0,0,0,.05,0,0,0,.05h0v0l0,.05v.16h0v.25h0v.15a.09.09,0,0,1,0,0v0h0v0a.43.43,0,0,1,0,.05s0,0,0,.06l0,.05h0a.25.25,0,0,0,0,.07l0,0,0,0a.31.31,0,0,1-.11.09l1.73-1a.48.48,0,0,0,.11-.09l0,0,0,0a.43.43,0,0,0,0-.07h0a.14.14,0,0,0,0-.06s0,0,0,0a.11.11,0,0,0,0-.05v0h0v0a.11.11,0,0,0,0-.05v-.15h0Z" transform="translate(-85.19 -29.51)"/><path class="cls-22" d="M279.48,192.46a6,6,0,0,0-1.71-.65,7.64,7.64,0,0,0-5.24.63,2.72,2.72,0,0,0-1.34,1.49c-.29.9.18,1.85,1.38,2.54a6.44,6.44,0,0,0,2.42.77,7.42,7.42,0,0,0,4.54-.76,3.05,3.05,0,0,0,1.21-1.18C281.24,194.33,280.82,193.23,279.48,192.46ZM278,195a1.56,1.56,0,0,1-.41.33,3.25,3.25,0,0,1-1.88.36,3.09,3.09,0,0,1-1.24-.36c-.59-.35-.78-.85-.55-1.29a1.36,1.36,0,0,1,.54-.52,3.33,3.33,0,0,1,2.16-.32,2.94,2.94,0,0,1,1,.32C278.27,194,278.41,194.56,278,195Z" transform="translate(-85.19 -29.51)"/><g class="cls-1"><path class="cls-36" d="M279.94,192.19a7,7,0,0,0-1.89-.72,8.62,8.62,0,0,0-6,.71,3.06,3.06,0,0,0-1.53,1.72c-.3,1,.23,2.06,1.57,2.84a7.58,7.58,0,0,0,2.7.86,8.46,8.46,0,0,0,5.18-.85,3.36,3.36,0,0,0,1.39-1.39C281.92,194.27,281.43,193.05,279.94,192.19Zm.8,3.11a3.05,3.05,0,0,1-1.21,1.18,7.42,7.42,0,0,1-4.54.76,6.44,6.44,0,0,1-2.42-.77c-1.2-.69-1.67-1.64-1.38-2.54a2.72,2.72,0,0,1,1.34-1.49,7.64,7.64,0,0,1,5.24-.63,6,6,0,0,1,1.71.65C280.82,193.23,281.24,194.33,280.74,195.3Z" transform="translate(-85.19 -29.51)"/><path class="cls-37" d="M287,188.08a19.22,19.22,0,0,0-4.7-1.87c-5.75-1.49-12.71-.88-17.4,1.84-2.54,1.48-4,3.34-4.4,5.28-.54,2.67,1,5.46,4.54,7.52a20.51,20.51,0,0,0,7.1,2.36c5.2.79,10.94,0,15-2.33a8.89,8.89,0,0,0,4.2-4.56C292.34,193.44,290.89,190.32,287,188.08Zm4.32,8.23a8.91,8.91,0,0,1-4.2,4.56c-4,2.35-9.78,3.12-15,2.33a20.3,20.3,0,0,1-7.1-2.36c-3.55-2.05-5.06-4.84-4.52-7.51.39-1.93,1.85-3.8,4.39-5.28,4.67-2.71,11.64-3.32,17.39-1.83a18.76,18.76,0,0,1,4.69,1.87C290.87,190.32,292.32,193.44,291.33,196.31Z" transform="translate(-85.19 -29.51)"/><path class="cls-38" d="M277.58,193.56a2.94,2.94,0,0,0-1-.32,3.33,3.33,0,0,0-2.16.32,1.36,1.36,0,0,0-.54.52c-.23.44,0,.94.55,1.29a3.09,3.09,0,0,0,1.24.36,3.25,3.25,0,0,0,1.88-.36A1.56,1.56,0,0,0,278,195C278.41,194.56,278.27,194,277.58,193.56Zm.12,1.45a1.11,1.11,0,0,1-.31.24,2.85,2.85,0,0,1-1.61.32,2.62,2.62,0,0,1-1.1-.32c-.54-.31-.7-.76-.48-1.15a1.19,1.19,0,0,1,.46-.42,2.9,2.9,0,0,1,1.84-.29,2.54,2.54,0,0,1,.88.29C278,194,278.11,194.59,277.7,195Z" transform="translate(-85.19 -29.51)"/><path class="cls-38" d="M287,188.09a18.76,18.76,0,0,0-4.69-1.87c-5.75-1.49-12.72-.88-17.39,1.83-2.54,1.48-4,3.35-4.39,5.28-.54,2.67,1,5.46,4.52,7.51a20.3,20.3,0,0,0,7.1,2.36c5.2.79,10.94,0,15-2.33a8.91,8.91,0,0,0,4.2-4.56C292.32,193.44,290.87,190.32,287,188.09Zm4,8.19a8.66,8.66,0,0,1-4.1,4.45c-3.95,2.3-9.57,3.06-14.65,2.28a20,20,0,0,1-6.95-2.31c-3.48-2-5-4.74-4.42-7.35.38-1.89,1.81-3.72,4.29-5.16,4.57-2.65,11.38-3.25,17-1.8a18.5,18.5,0,0,1,4.59,1.83C290.55,190.41,292,193.46,291,196.28Z" transform="translate(-85.19 -29.51)"/><path class="cls-37" d="M286.76,188.22a18.5,18.5,0,0,0-4.59-1.83c-5.63-1.45-12.44-.85-17,1.8-2.48,1.44-3.91,3.27-4.29,5.16-.54,2.61.94,5.34,4.42,7.35a20,20,0,0,0,6.95,2.31c5.08.78,10.7,0,14.65-2.28a8.66,8.66,0,0,0,4.1-4.45C292,193.46,290.55,190.41,286.76,188.22Zm-5.38,7.14a3.36,3.36,0,0,1-1.39,1.39,8.46,8.46,0,0,1-5.18.85,7.58,7.58,0,0,1-2.7-.86c-1.34-.78-1.87-1.84-1.57-2.84a3.06,3.06,0,0,1,1.53-1.72,8.62,8.62,0,0,1,6-.71,7,7,0,0,1,1.89.72C281.43,193.05,281.92,194.27,281.38,195.36Z" transform="translate(-85.19 -29.51)"/></g><path class="cls-39" d="M291.34,196.32h0l-.34,0-9.61-.92-.64-.06L278,195l-.3,0c.41-.42.31-1-.32-1.33a2.54,2.54,0,0,0-.88-.29l.12-.15,1.15-1.43.28-.34,4.12-5.08.14-.17h0a19.22,19.22,0,0,1,4.7,1.87C290.89,190.32,292.34,193.44,291.34,196.32Z" transform="translate(-85.19 -29.51)"/><path class="cls-40" d="M275.78,195.57l-.07.16-.72,1.51-.18.36L272.24,203l-.09.19h0a20.51,20.51,0,0,1-7.1-2.36c-3.57-2.06-5.08-4.85-4.54-7.52h0l.34,0,9.67.55.65,0,2.73.15.28,0c-.22.39-.06.84.48,1.15A2.62,2.62,0,0,0,275.78,195.57Z" transform="translate(-85.19 -29.51)"/><polygon class="cls-41" points="232.82 153.03 217.93 161.64 198.49 150.34 194.9 148.25 209.79 139.65 213.4 141.74 232.82 153.03"/><polygon class="cls-34" points="194.9 148.25 194.9 152.65 217.93 166.03 217.93 161.63 194.9 148.25"/><polygon class="cls-42" points="232.82 153.03 232.82 157.44 217.93 166.03 217.93 161.63 232.82 153.03"/><polygon class="cls-9" points="213.4 141.74 198.49 150.34 194.9 148.25 209.79 139.65 213.4 141.74"/><path class="cls-9" d="M305.58,177.81a.36.36,0,0,0-.21-.21.37.37,0,0,0-.19-.07.24.24,0,0,0-.15,0,.1.1,0,0,0-.06.11.7.7,0,0,1,0,.35.44.44,0,0,1-.22.24.88.88,0,0,1-.6.09c.28-.27.42-.49.42-.67a.54.54,0,0,0-.33-.46,1.19,1.19,0,0,0-.61-.17,1.34,1.34,0,0,0-.6.16.76.76,0,0,0-.38.42.55.55,0,0,0,.06.48,1.27,1.27,0,0,0,.48.43l.2.1a1.34,1.34,0,0,1,0,.21.43.43,0,0,1-.24.28.82.82,0,0,1-.56.1,2.44,2.44,0,0,1-.81-.33l-.36-.22.57-.34c.36-.2.43-.37.21-.5a.37.37,0,0,0-.16-.05.3.3,0,0,0-.14.05l-.53.31a1.09,1.09,0,0,0-.67-1.1,1.25,1.25,0,0,0-.55-.19.78.78,0,0,0-.49.08.42.42,0,0,0-.24.44,1.18,1.18,0,0,0,.29.63,3.61,3.61,0,0,0,.71.69l-.27.16c-.14.08-.13.17.05.27a.4.4,0,0,0,.22.07.56.56,0,0,0,.24-.08l.18-.11.31.19h0l-.06.05a3.15,3.15,0,0,1-.43.36,2.19,2.19,0,0,0-.88-.21,1.49,1.49,0,0,0-.82.2.73.73,0,0,0-.38.4.57.57,0,0,0,.06.47,1.44,1.44,0,0,0,.51.45l.2.09a.5.5,0,0,1,0,.19.42.42,0,0,1-.2.24.71.71,0,0,1-.36.09.77.77,0,0,1-.39-.12,2.27,2.27,0,0,1-.36-.26l-1.07-1a2.44,2.44,0,0,0-.45-.33,1.65,1.65,0,0,0-.78-.23,1.46,1.46,0,0,0-.8.21.8.8,0,0,0-.49.71,1.5,1.5,0,0,0,.46,1,5.71,5.71,0,0,0-.72-.5,1.33,1.33,0,0,0-.6-.2,1,1,0,0,0-.55.14.93.93,0,0,0-.42.44.88.88,0,0,0,0,.58.54.54,0,0,0,.07.17.34.34,0,0,0,.13.1.36.36,0,0,0,.19.05.32.32,0,0,0,.18,0,.13.13,0,0,0,.06-.14.91.91,0,0,1,0-.45.48.48,0,0,1,.17-.25.34.34,0,0,1,.37,0,5.16,5.16,0,0,1,.53.35l.73.56c.23.18.35.29.39.31l.53.42a2.51,2.51,0,0,0,.33.23.79.79,0,0,0,.37.12.63.63,0,0,0,.33-.09c.12-.08.17-.14.15-.2s-.1-.15-.24-.26a8.31,8.31,0,0,1-1.36-1.21,1.79,1.79,0,0,1-.45-.87.51.51,0,0,1,.26-.51.66.66,0,0,1,.33-.09.75.75,0,0,1,.33.1l.18.11.17.14.12.11.68.61a4.64,4.64,0,0,0,.38.33,2.92,2.92,0,0,0,.32.21,1.83,1.83,0,0,0,.87.24,1.61,1.61,0,0,0,.86-.23.88.88,0,0,0,.37-.37.79.79,0,0,0,.06-.32,1.84,1.84,0,0,0,.47,0,1.46,1.46,0,0,0,.62-.2.62.62,0,0,0,.36-.49.71.71,0,0,0-.28-.57,2.19,2.19,0,0,0,.5-.43l0-.05a2.06,2.06,0,0,0,2,0,.7.7,0,0,0,.43-.68h.18a1.76,1.76,0,0,0,1-.25,1,1,0,0,0,.4-.36A.42.42,0,0,0,305.58,177.81Zm-5.24,0a1.94,1.94,0,0,1-.33-.38c-.06-.1-.07-.17,0-.2s.2,0,.39.11a1.17,1.17,0,0,1,.41.39.91.91,0,0,1,.12.56Q300.58,178.07,300.34,177.84Zm.2,2.83a.73.73,0,0,1-.38.06,1.29,1.29,0,0,1-.5-.17.83.83,0,0,1-.39-.38.23.23,0,0,1,.13-.28l0,0a.71.71,0,0,0,.14.1,1.3,1.3,0,0,0,.42.15,1.6,1.6,0,0,0,.49,0c.12.1.2.2.2.29A.23.23,0,0,1,300.54,180.67Zm3.18-2.5h0a.87.87,0,0,1-.38-.35.21.21,0,0,1,.09-.29.45.45,0,0,1,.19-.05.47.47,0,0,1,.2.06.27.27,0,0,1,.15.27A.73.73,0,0,1,303.72,178.17Z" transform="translate(-85.19 -29.51)"/><path class="cls-43" d="M275.13,246.48h-9.81a19.1,19.1,0,0,0-7.76,1.54c-2.34,1-4.48,2.6-3.71,4.72,0,0-6.83,4.42-2.79,6.45,0,0,1.6.86,3.95-1.74,0,0,5.87-3.27,11.07-1.35,0,0,5.68,2,9.05.68Z" transform="translate(-85.19 -29.51)"/><path class="cls-43" d="M306.32,221.54l-4.75-1-9.95-3.09s-2.5-.07-6.74,2.82l-6.06,4.25s-.52,2.71,2.85.56l6.09-2.7a2.85,2.85,0,0,1,1.75-.2l2.13,1.11.17,1.79-3.91,1.45-2.57.48s-2.5,1.35-.45,2.69l6.09-.45,7.71-1,6,.26Z" transform="translate(-85.19 -29.51)"/><path class="cls-44" d="M321.05,222.66l-13.52-2.1a2.8,2.8,0,0,0-2.77,1.18,9.81,9.81,0,0,0-1.55,6.51,2.86,2.86,0,0,0,2.19,2.52l7.48,1.75Z" transform="translate(-85.19 -29.51)"/><path class="cls-43" d="M336.93,207.87l-5-10.79s-10.19,7.1-13.32-5.74c-.26-1.05-5.78-22.88-5.78-22.88l26.19-.77,6.3,21.37,5.38,10.73Z" transform="translate(-85.19 -29.51)"/><path class="cls-28" d="M325.65,276.27l-2.19-51.92a11.59,11.59,0,0,1,2.81-8.12c4.78-5.51,15.08-15.81,29.3-21.44,0,0,10.37-4.92,15.44,10.84a39.8,39.8,0,0,1,1.75,10.51l5.52,63.54s-21.93,22.07-42.36,12.61A18.38,18.38,0,0,1,325.65,276.27Z" transform="translate(-85.19 -29.51)"/><path class="cls-45" d="M324.65,218.32l-19.19,23.15a8.51,8.51,0,0,1-6.2,3.08l-23.26,1a.91.91,0,0,0-.87.92v12.1a.92.92,0,0,0,.88.92l27.93,1a8.52,8.52,0,0,0,6.12-2.28l25.26-23.47a7.68,7.68,0,0,0,2.42-5l.45-5.94a7.67,7.67,0,0,0-5.6-8h0A7.66,7.66,0,0,0,324.65,218.32Z" transform="translate(-85.19 -29.51)"/><path class="cls-12" d="M389.79,291.7l-45.22,26.11a9.45,9.45,0,0,0-4.31,7.45c0,2.75,1.95,3.85,4.33,2.47l45.23-26.11a9.49,9.49,0,0,0,4.3-7.46C394.11,291.43,392.17,290.32,389.79,291.7Z" transform="translate(-85.19 -29.51)"/><polygon class="cls-46" points="283.18 259.65 279.38 261.86 283.21 264.07 287.01 261.86 283.18 259.65"/><polygon class="cls-9" points="283.21 264.07 283.15 288.79 286.95 286.58 287.01 261.86 283.21 264.07"/><polygon class="cls-20" points="279.38 261.86 279.32 286.58 283.15 288.79 283.21 264.07 279.38 261.86"/><path class="cls-12" d="M388.41,187.55l-40.83,23.57c-5.44,3.14-9.75,10.87-9.47,16.95l3.37,71.64c.27,5.67,4.46,7.83,9.53,4.91l34.51-19.92c5.07-2.93,9.23-9.92,9.47-15.88l2.95-75.29C398.19,187.14,393.84,184.41,388.41,187.55Z" transform="translate(-85.19 -29.51)"/><path class="cls-11" d="M389.5,187l.83-.33h.05c.23-.08.46-.14.69-.2l.39-.08.5-.08.29,0c.21,0,.41,0,.61,0H393a5.35,5.35,0,0,1,.7.08l.17,0a4.44,4.44,0,0,1,.52.15l.16.06a4.43,4.43,0,0,1,.62.3l-9.67-5.62-.05,0q-.24-.13-.48-.24l-.09,0-.16-.06-.25-.09-.28-.06-.16,0-.1,0-.57-.07h-.63l-.15,0-.29,0-.27,0-.23.05-.39.08-.21,0a4.42,4.42,0,0,0-.48.15h-.06c-.19.07-.39.14-.59.23l-.23.1-.22.11c-.29.13-.58.28-.88.45L337.91,205.5c-.32.18-.62.38-.93.59l-.29.21-.62.47-.32.27-.57.5-.3.28-.16.15-.24.26c-.21.21-.41.42-.61.65l-.17.18-.25.3c-.12.14-.24.28-.35.43l-.17.21-.32.42c-.07.11-.15.21-.23.32l-.09.12c-.19.27-.37.54-.55.82l0,0a.75.75,0,0,1-.07.12c-.14.21-.27.43-.4.66a2,2,0,0,0-.14.25c-.05.09-.11.18-.16.28l-.15.27c-.12.22-.23.44-.34.66a.61.61,0,0,0,0,.12l0,0c-.13.28-.26.55-.38.83,0,.06-.05.13-.08.2l-.12.28-.15.37-.17.48c0,.1-.07.19-.1.29a.5.5,0,0,0-.05.13q-.16.48-.3,1v0c0,.07,0,.13-.05.2q-.12.44-.21.87s0,.05,0,.08c-.08.4-.15.8-.2,1.19,0,0,0,.06,0,.09h0c0,.27-.05.55-.07.82l0,.37a11.22,11.22,0,0,0,0,1.16l3.37,71.64c.13,2.72,1.16,4.64,2.76,5.57l9.67,5.62c-1.6-.93-2.63-2.85-2.76-5.57l-3.37-71.64c0-.38,0-.77,0-1.16,0-.12,0-.25,0-.37s0-.54.08-.82c0,0,0-.06,0-.09q.07-.6.21-1.2c.06-.32.14-.63.22-1l0-.2c.11-.37.22-.74.35-1.11,0-.1.07-.19.1-.29.1-.28.21-.56.32-.84l.12-.29c.15-.36.31-.71.48-1.06l.06-.12c.15-.31.32-.62.48-.93.06-.09.11-.19.16-.28l.54-.91a.75.75,0,0,0,.07-.12l.66-1,.24-.32c.15-.21.32-.42.48-.63l.36-.43c.13-.17.27-.33.41-.48s.41-.44.61-.65l.4-.4.3-.29.57-.5.32-.27.62-.47.29-.21c.31-.21.62-.41.93-.59l40.83-23.57a9,9,0,0,1,.87-.45Z" transform="translate(-85.19 -29.51)"/><path class="cls-47" d="M311.1,172.37c1.16.36,5.39-.49,6.77-1l3.18,9.33,1.64-1s-1.63-9,4-.77l6.46,7.09s3.65,3.42,11.39.52c0,0,7.93-7.7,3.48-24.25a18.55,18.55,0,0,0-7-10.44c-3.74-2.64-9.43-4.53-17.62-2.25a27.64,27.64,0,0,0-12.61,7.29,17,17,0,0,0-4.12,6.56A7.18,7.18,0,0,0,311.1,172.37Z" transform="translate(-85.19 -29.51)"/><path class="cls-10" d="M155.39,170c0-3-2.12-4.18-4.71-2.68l-35.43,20.45a10.31,10.31,0,0,0-4.68,8.11l.11,40.7c0,3,2.12,4.19,4.71,2.69l35.43-20.45a10.33,10.33,0,0,0,4.68-8.11Z" transform="translate(-85.19 -29.51)"/><path class="cls-11" d="M151.78,166.82l.21-.06.19,0,.25,0,.14,0h.37l.35,0,.08,0,.26.08.08,0a3,3,0,0,1,.31.15h0l-8.19-4.76h0l-.24-.12h0l-.09,0-.12,0a.61.61,0,0,0-.13,0l-.09,0h0l-.28,0h-.53l-.13,0-.12,0-.19,0-.11,0-.1,0-.33.11-.12,0-.07,0a6.4,6.4,0,0,0-.59.29L107.06,183a7,7,0,0,0-.88.61l-.27.24-.42.36-.17.19a1.29,1.29,0,0,0-.16.17l-.18.19c-.13.15-.26.3-.38.46l-.12.17-.07.09-.12.16a4.81,4.81,0,0,0-.27.41c-.09.13-.17.26-.25.4v0l0,0-.19.33c-.07.14-.13.27-.2.4s-.11.24-.17.37v0l-.17.42c0,.15-.11.3-.16.44l-.06.22,0,.1a1,1,0,0,0,0,.16,5.29,5.29,0,0,0-.13.54c0,.11,0,.22-.06.32l0,.17,0,.16a7.22,7.22,0,0,0-.06.92l.12,40.71a3.28,3.28,0,0,0,1.37,3l8.19,4.76a3.3,3.3,0,0,1-1.38-3l-.11-40.7a6.65,6.65,0,0,1,.09-1.08,1,1,0,0,1,0-.17,9.41,9.41,0,0,1,.24-1l0-.1c.12-.37.25-.74.41-1.11v0a11.12,11.12,0,0,1,.55-1.09l0,0a10.93,10.93,0,0,1,.66-1l.06-.08c.22-.29.45-.57.69-.83l.15-.16c.19-.2.39-.38.59-.56l.28-.24a8.64,8.64,0,0,1,.88-.61l35.43-20.45a5.46,5.46,0,0,1,.59-.3l.18-.07Z" transform="translate(-85.19 -29.51)"/><path class="cls-9" d="M124.74,200l-3.66,2.11,0,18.19,2.48-1.43,0-6.84,1.18-.68a7.17,7.17,0,0,0,3.69-6.62v-2.36C128.44,199.43,127.22,198.56,124.74,200Zm0,8.75-1.19.69,0-6.16,1.19-.69c.78-.45,1.2-.26,1.21,1v2.73A2.41,2.41,0,0,1,124.77,208.74Z" transform="translate(-85.19 -29.51)"/><polygon class="cls-9" points="49.71 164.61 49.73 172.41 46.92 174.03 46.89 166.23 44.4 167.67 44.45 185.86 46.95 184.42 46.92 176.63 49.74 175 49.76 182.8 52.31 181.33 52.26 163.14 49.71 164.61"/><path class="cls-9" d="M146.64,191.86c0-2.93-1.23-3.8-3.71-2.37l-3.67,2.11.06,18.19,2.47-1.43,0-6.84,1.19-.69a7.15,7.15,0,0,0,3.69-6.61ZM143,198.24l-1.18.69,0-6.16,1.19-.69c.78-.45,1.2-.26,1.21,1v2.73A2.4,2.4,0,0,1,143,198.24Z" transform="translate(-85.19 -29.51)"/><path class="cls-10" d="M172.69,92c0-2.44-1.74-3.42-3.86-2.19l-29,16.74a8.42,8.42,0,0,0-3.83,6.63l.09,33.31c0,2.44,1.74,3.43,3.86,2.2l29-16.74a8.42,8.42,0,0,0,3.83-6.63Z" transform="translate(-85.19 -29.51)"/><path class="cls-11" d="M169.74,89.36l.17,0,.15,0,.21,0h.42a1.33,1.33,0,0,1,.28,0l.07,0a.83.83,0,0,1,.21.06l.06,0a2.06,2.06,0,0,1,.26.12h0l-6.7-3.89h0a1.24,1.24,0,0,0-.2-.1h0l-.07,0-.1,0-.11,0h-.1l-.24,0h-.54l-.09,0-.16,0-.09,0-.08,0-.27.1-.1,0,0,0a2.69,2.69,0,0,0-.48.24l-29,16.74a4.89,4.89,0,0,0-.72.5l-.22.19c-.12.1-.23.19-.34.3l-.15.15-.12.14-.15.16c-.11.12-.21.25-.31.38l-.11.13-.05.08-.1.13a4,4,0,0,0-.22.34,3.45,3.45,0,0,0-.2.32v0l0,0-.15.27-.17.33-.13.3v0h0c0,.12-.1.23-.14.35s-.09.24-.13.36a1.21,1.21,0,0,0-.05.18l0,.08,0,.13c0,.15-.08.3-.11.44a2.51,2.51,0,0,0,0,.27l0,.14a.69.69,0,0,1,0,.13,6.3,6.3,0,0,0-.05.75l.1,33.31a2.7,2.7,0,0,0,1.12,2.47l6.7,3.89a2.72,2.72,0,0,1-1.13-2.47L136,113.13a6.65,6.65,0,0,1,.07-.88l0-.14a6.34,6.34,0,0,1,.19-.84.19.19,0,0,0,0-.08c.1-.3.21-.6.34-.9v0a8.39,8.39,0,0,1,.45-.9v0c.17-.28.35-.56.54-.82l.05-.07c.18-.24.37-.46.56-.68a1.59,1.59,0,0,0,.13-.13c.16-.17.32-.31.48-.46l.23-.19a4.89,4.89,0,0,1,.72-.5l29-16.74a4.4,4.4,0,0,1,.49-.24l.15-.06Z" transform="translate(-85.19 -29.51)"/><path class="cls-9" d="M149.48,125v2a2,2,0,0,1-1,1.91c-.61.35-1,.22-1-.77l0-7.51a2.05,2.05,0,0,1,1-2c.6-.34,1-.18,1,.81V121l1.8-1v-1.35c0-2.22-1-2.94-2.84-1.86a5.62,5.62,0,0,0-2.82,5.14l0,7.22c0,2.23,1,2.94,2.84,1.86a5.6,5.6,0,0,0,2.82-5.13V124Z" transform="translate(-85.19 -29.51)"/><path class="cls-9" d="M155.71,118.94c-1.25-.53-1.63-1.07-1.63-2.08a2,2,0,0,1,.94-1.92c.61-.35.95-.17,1,.82v.58l1.79-1v-.44c0-2.22-1-3-2.8-1.88a5.59,5.59,0,0,0-2.79,5.12,3,3,0,0,0,2.1,3.13c1.25.54,1.63,1.07,1.64,2.08a2,2,0,0,1-1,1.92c-.6.35-1,.22-1-.78v-1l-1.8,1v.85c0,2.23,1,2.94,2.84,1.86a5.6,5.6,0,0,0,2.82-5.13A2.93,2.93,0,0,0,155.71,118.94Z" transform="translate(-85.19 -29.51)"/><path class="cls-9" d="M162.17,115.21c-1.25-.53-1.63-1.07-1.63-2.08a2,2,0,0,1,1-1.93c.6-.35.94-.16.95.83v.58l1.8-1v-.44c0-2.22-.95-2.95-2.8-1.88a5.59,5.59,0,0,0-2.79,5.12,3,3,0,0,0,2.1,3.13c1.25.54,1.63,1.07,1.64,2.08a2,2,0,0,1-1,1.92c-.6.35-1,.22-1-.78v-1l-1.8,1v.85c0,2.23,1,2.93,2.84,1.86a5.61,5.61,0,0,0,2.82-5.13A2.93,2.93,0,0,0,162.17,115.21Z" transform="translate(-85.19 -29.51)"/><path class="cls-10" d="M223.65,95.08c0-1.72-1.21-2.4-2.7-1.54l-20.36,11.75a5.93,5.93,0,0,0-2.69,4.65l.07,23.39c0,1.72,1.22,2.41,2.71,1.55L221,123.12a5.91,5.91,0,0,0,2.69-4.65Z" transform="translate(-85.19 -29.51)"/><path class="cls-11" d="M221.58,93.26l.12,0,.11,0,.15,0h.29l.2,0,.05,0,.14,0h.05l.18.09h0l-4.71-2.73h0a.61.61,0,0,0-.14-.07h-.07l-.07,0-.08,0h-.07l-.16,0h-.45l-.11,0-.06,0-.06,0-.19.06-.07,0,0,0a3.4,3.4,0,0,0-.34.16l-20.35,11.76a5.16,5.16,0,0,0-.51.35l-.15.13-.24.21-.1.11-.09.1a1.14,1.14,0,0,0-.11.11l-.22.26a.36.36,0,0,1-.07.1l0,0-.08.1-.15.23c0,.08-.1.15-.14.23v0h0l-.11.2a1.63,1.63,0,0,0-.11.23,1.24,1.24,0,0,0-.1.2v0h0a2.44,2.44,0,0,0-.1.24l-.09.26a.56.56,0,0,0,0,.12l0,.06a.29.29,0,0,0,0,.09c0,.1-.06.21-.08.31l0,.19s0,.06,0,.09,0,.06,0,.09a3.23,3.23,0,0,0,0,.53l.07,23.39a1.87,1.87,0,0,0,.79,1.73l4.7,2.73a1.87,1.87,0,0,1-.79-1.73l-.07-23.39a4.3,4.3,0,0,1,0-.61s0-.07,0-.1a4.2,4.2,0,0,1,.14-.59v0c.07-.22.15-.43.24-.64h0a6.19,6.19,0,0,1,.32-.63v0c.12-.2.24-.39.38-.58l0,0a5.71,5.71,0,0,1,.39-.47l.09-.1.34-.31.15-.14a5.16,5.16,0,0,1,.51-.35L221,93.54a2.16,2.16,0,0,1,.34-.17l.1,0Z" transform="translate(-85.19 -29.51)"/><polygon class="cls-9" points="120.14 83.34 120.15 87.11 118.79 87.89 118.78 84.13 117.57 84.82 117.6 93.61 118.8 92.92 118.79 89.15 120.15 88.36 120.16 92.13 121.38 91.42 121.36 82.64 120.14 83.34"/><polygon class="cls-9" points="125.6 80.19 121.89 82.33 121.89 83.58 123.15 82.86 123.17 90.39 124.37 89.7 124.34 82.17 125.61 81.44 125.6 80.19"/><polygon class="cls-9" points="129.49 77.94 128.7 84.64 128.68 84.66 127.79 78.92 126.12 79.89 126.14 88.67 127.19 88.07 127.19 81.84 128.09 87.55 129.22 86.9 130.01 80.13 130.04 80.12 130.06 86.42 131.19 85.76 131.16 76.98 129.49 77.94"/><polygon class="cls-9" points="135.24 82.17 133.26 83.31 133.24 75.77 132.04 76.47 132.06 85.26 135.24 83.42 135.24 82.17"/><path class="cls-10" d="M278.12,49.15c0-2.16-1.53-3-3.4-1.94L249.13,62a7.44,7.44,0,0,0-3.38,5.86l.08,29.4c0,2.15,1.53,3,3.4,1.94L274.82,84.4a7.44,7.44,0,0,0,3.38-5.85Z" transform="translate(-85.19 -29.51)"/><path class="cls-11" d="M275.52,46.86l.15,0,.13,0,.18,0h.37a1,1,0,0,1,.25,0h.06a1.06,1.06,0,0,1,.19.06l.06,0,.22.1h0l-5.91-3.43,0,0-.17-.08h0l-.06,0-.09,0-.1,0-.06,0h0l-.21,0H270l-.09,0-.14,0-.07,0-.08,0-.24.09-.08,0,0,0a4.11,4.11,0,0,0-.42.21L243.22,58.55a3.84,3.84,0,0,0-.64.44l-.2.17-.3.26-.13.14-.11.12-.13.14-.27.33-.09.12,0,.07-.09.12-.2.29-.17.29v0l0,0c0,.08-.09.16-.13.25l-.15.28-.12.27h0v0c0,.1-.09.2-.12.3s-.08.21-.12.32,0,.11,0,.16l0,.07,0,.12c0,.13-.07.26-.1.39a1.57,1.57,0,0,0,0,.23,549907824110,549907824110,0,0,1,0,.24,4.87,4.87,0,0,0,0,.66l.08,29.4a2.38,2.38,0,0,0,1,2.18l5.91,3.43a2.35,2.35,0,0,1-1-2.17l-.08-29.4a5.12,5.12,0,0,1,.06-.78s0-.08,0-.12a6.11,6.11,0,0,1,.17-.74l0-.07a7.71,7.71,0,0,1,.3-.8v0a6.51,6.51,0,0,1,.4-.79v0a8.21,8.21,0,0,1,.47-.73l0-.06a5.68,5.68,0,0,1,.49-.59l.12-.13a5.11,5.11,0,0,1,.42-.39l.2-.18a6.62,6.62,0,0,1,.64-.44l25.59-14.77a2.74,2.74,0,0,1,.42-.21l.14-.06Z" transform="translate(-85.19 -29.51)"/><path class="cls-9" d="M257.63,77.3v1.93a1.94,1.94,0,0,1-.95,1.86c-.6.35-1,.21-1-.76l0-7.28a2,2,0,0,1,1-1.88c.59-.34,1-.19,1,.78v1.44l1.75-1V71.07c0-2.16-.95-2.84-2.77-1.8a5.48,5.48,0,0,0-2.75,5l0,7c0,2.16,1,2.85,2.77,1.81a5.5,5.5,0,0,0,2.75-5V76.29Z" transform="translate(-85.19 -29.51)"/><polygon class="cls-9" points="180.86 40.46 178.62 41.76 178.61 39.15 177.3 39.91 177.31 42.51 175.05 43.81 175.06 45.32 177.31 44.02 177.32 46.65 178.63 45.9 178.62 43.26 180.86 41.97 180.86 40.46"/><polygon class="cls-9" points="187.51 38.13 187.51 36.62 185.27 37.92 185.26 35.31 183.95 36.07 183.96 38.67 181.7 39.98 181.71 41.48 183.96 40.18 183.97 42.81 185.28 42.06 185.27 39.42 187.51 38.13"/><path class="cls-10" d="M331.22,92.37c0-1.71-1.22-2.4-2.7-1.54l-20.36,11.75a5.93,5.93,0,0,0-2.69,4.66l.07,23.38c0,1.72,1.22,2.41,2.7,1.55l20.36-11.75a6,6,0,0,0,2.69-4.66Z" transform="translate(-85.19 -29.51)"/><path class="cls-11" d="M329.15,90.55l.12,0,.11,0,.14,0h.3a.69.69,0,0,1,.2,0h0l.15,0,.05,0,.17.08h0l-4.7-2.73h0l-.14-.07h-.07l-.07,0-.08,0h-.07l-.16,0h-.05a.56.56,0,0,0-.13,0h-.27l-.11,0-.06,0-.06,0-.19.06-.07,0,0,0a2.15,2.15,0,0,0-.34.17L303.46,99.85a3.54,3.54,0,0,0-.51.35l-.16.14a2.29,2.29,0,0,0-.23.21l-.11.1-.08.1-.11.11c-.07.09-.15.17-.22.27l-.07.09,0,0a.36.36,0,0,1-.07.1l-.15.23c0,.08-.1.15-.14.23v0l-.11.19-.12.23-.09.21h0a2.44,2.44,0,0,0-.1.24L301,103a.56.56,0,0,0,0,.12l0,.06,0,.09c0,.11-.05.21-.07.31a1.25,1.25,0,0,0,0,.19.3.3,0,0,0,0,.1s0,.06,0,.09a4.53,4.53,0,0,0,0,.52l.07,23.39a1.89,1.89,0,0,0,.78,1.73l4.71,2.74a1.9,1.9,0,0,1-.79-1.74l-.07-23.38a4.32,4.32,0,0,1,0-.62s0-.07,0-.1c0-.19.08-.39.13-.59l0-.05a4.93,4.93,0,0,1,.24-.64h0a6.19,6.19,0,0,1,.32-.63v0a5.65,5.65,0,0,1,.38-.57l0-.05c.13-.17.26-.33.4-.48l.09-.09a3.4,3.4,0,0,1,.34-.32l.15-.14a5.16,5.16,0,0,1,.51-.35l20.36-11.75a2.59,2.59,0,0,1,.33-.17l.11,0Z" transform="translate(-85.19 -29.51)"/><path class="cls-9" d="M315.44,105l0,12.06a2.34,2.34,0,0,1-1.24,2.25,7.48,7.48,0,0,1-.74.39V122c.36-.17.65-.34,1-.56a6.11,6.11,0,0,0,3.11-5.77l0-11.89Z" transform="translate(-85.19 -29.51)"/><path class="cls-9" d="M321.85,110.56c-1.07-.45-1.39-.91-1.4-1.78a1.71,1.71,0,0,1,.81-1.65c.52-.3.82-.15.82.72v.49l1.55-.9v-.37c0-1.92-.82-2.53-2.42-1.61a4.78,4.78,0,0,0-2.39,4.39,2.53,2.53,0,0,0,1.81,2.69c1.06.46,1.39.91,1.39,1.78a1.71,1.71,0,0,1-.83,1.66c-.52.29-.85.18-.85-.69v-.85l-1.55.9v.73c0,1.92.85,2.52,2.44,1.59a4.8,4.8,0,0,0,2.43-4.41A2.53,2.53,0,0,0,321.85,110.56Z" transform="translate(-85.19 -29.51)"/><path class="cls-10" d="M221.63,41.7c0-2-1.44-2.84-3.2-1.83L194.28,53.81a7.06,7.06,0,0,0-3.19,5.53l.08,27.74c0,2,1.45,2.85,3.21,1.83L218.52,75a7,7,0,0,0,3.19-5.53Z" transform="translate(-85.19 -29.51)"/><path class="cls-11" d="M219.18,39.55l.14,0,.13,0,.17,0H220a1,1,0,0,1,.24,0h0l.18.05.05,0,.21.1h0l-5.58-3.24h0l-.16-.08h0l0,0-.08,0-.1,0h-.08l-.2,0h-.06a.75.75,0,0,0-.15,0H214l-.08,0-.13,0h-.07l-.07,0-.23.08-.07,0-.05,0a3.73,3.73,0,0,0-.4.2L188.7,50.57a5.46,5.46,0,0,0-.6.42l-.18.16-.29.25-.12.13-.1.11-.12.13a4,4,0,0,0-.26.32l-.09.11,0,.06-.09.12-.18.27-.17.27v0l-.13.22c-.05.09-.09.18-.14.28l-.11.24v0h0l-.12.29c0,.1-.08.2-.11.3a.83.83,0,0,0,0,.15l0,.07a.36.36,0,0,0,0,.11l-.09.37a2.07,2.07,0,0,1,0,.22.52.52,0,0,1,0,.11s0,.07,0,.11a4.44,4.44,0,0,0-.05.62l.08,27.74a2.27,2.27,0,0,0,.94,2.06l5.58,3.24a2.22,2.22,0,0,1-.94-2l-.08-27.74a4.71,4.71,0,0,1,.06-.74s0-.07,0-.11a5.88,5.88,0,0,1,.16-.7l0-.07a7.61,7.61,0,0,1,.28-.75h0a6.59,6.59,0,0,1,.38-.75v0a6.2,6.2,0,0,1,.44-.69l.05-.06c.15-.19.3-.38.47-.56l.1-.11.4-.38.19-.16a4,4,0,0,1,.6-.42l24.15-13.94c.13-.07.26-.14.4-.2l.12-.05Z" transform="translate(-85.19 -29.51)"/><polygon class="cls-9" points="121.29 29.69 119.79 30.56 118.57 35.63 118.53 35.65 117.32 31.98 115.64 32.95 117.34 37.73 115.55 44.86 117.08 43.98 118.38 38.53 118.41 38.51 119.74 42.44 121.44 41.46 119.61 36.42 121.29 29.69"/><path class="cls-9" d="M212.39,58.72c0-1.89-.8-2.46-2.41-1.53l-2.57,1.48,0,11.83L210,69a4.71,4.71,0,0,0,2.4-4.33ZM210,67.34l-.92.53,0-8.45.92-.53c.52-.29.83-.17.83.68l0,6.15A1.68,1.68,0,0,1,210,67.34Z" transform="translate(-85.19 -29.51)"/></g><g id="DESIGNED_BY_FREEPIK" data-name="DESIGNED BY FREEPIK"><path class="cls-26" d="M260.1,471.74a7.3,7.3,0,0,0-1.1,1.45l-.47-.24a.61.61,0,0,0-1.19.21.61.61,0,0,0,.67.53.6.6,0,0,0,.19-.06l.45.24a7,7,0,0,0-.54,1.74l.74.13a6.59,6.59,0,0,1,1.8-3.47Z" transform="translate(-85.19 -29.51)"/><path class="cls-26" d="M265.59,469.44a4.35,4.35,0,0,0-.51,0l-.07-.63a.72.72,0,1,0-1.16-.48.72.72,0,0,0,.41.57l.07.62a7.6,7.6,0,0,0-2.06.65l.33.68a6.81,6.81,0,0,1,3-.67,7.36,7.36,0,0,1,1.48.15l.16-.74A8.23,8.23,0,0,0,265.59,469.44Z" transform="translate(-85.19 -29.51)"/><path class="cls-26" d="M272.19,472a.62.62,0,0,0,.53-.68.6.6,0,0,0-1.2.09l-.42.36a7.82,7.82,0,0,0-1.41-1.14l-.4.64a6.78,6.78,0,0,1,2.56,2.93l.69-.32a7.14,7.14,0,0,0-.94-1.54l.4-.35Z" transform="translate(-85.19 -29.51)"/><path class="cls-26" d="M265,479.65c-.38,0-.77,0-1.15,0a15.87,15.87,0,0,1-2.48-.18,7.94,7.94,0,0,1-1.27-.29,6.19,6.19,0,0,0,11.34-1.38A9.64,9.64,0,0,1,269,479,17.19,17.19,0,0,1,265,479.65Z" transform="translate(-85.19 -29.51)"/><path class="cls-26" d="M265.59,471a6,6,0,0,0-6.08,5.95,5.93,5.93,0,0,0,.14,1.26c.67.48,2.7.89,5.35.73a11.48,11.48,0,0,0,6.67-2.16,5.67,5.67,0,0,0-.05-.58A6,6,0,0,0,265.59,471Zm-2.16,6.52a1.85,1.85,0,1,1,1.85-1.85A1.85,1.85,0,0,1,263.43,477.47Zm4.74-.91a1.36,1.36,0,1,1,1.36-1.36A1.36,1.36,0,0,1,268.17,476.56Z" transform="translate(-85.19 -29.51)"/><path class="cls-26" d="M281.6,472.82a2.94,2.94,0,0,0-1.39-.24c-.55.07-.84.35-.84,1v.87h2.23v1.71h-2.23v5.46h-1.93v-5.46H276.1v-1.71h1.34v-.89a2.46,2.46,0,0,1,2.57-2.78,4.1,4.1,0,0,1,1.59.3Z" transform="translate(-85.19 -29.51)"/><path class="cls-26" d="M286.3,476.15a3.23,3.23,0,0,0-.53,0,1.44,1.44,0,0,0-1.51,1.61v3.91h-1.93v-7.17h1.87v.78a2.27,2.27,0,0,1,2-1,1.8,1.8,0,0,1,1.1.34Z" transform="translate(-85.19 -29.51)"/><path class="cls-26" d="M294,478a6,6,0,0,1,0,.65h-5.09a1.74,1.74,0,0,0,1.85,1.49,2.88,2.88,0,0,0,1.81-.69l1.13,1.25a4.37,4.37,0,0,1-3.05,1.08,3.78,3.78,0,0,1-.1-7.55A3.48,3.48,0,0,1,294,478Zm-5.12-.66H292a1.6,1.6,0,0,0-3.18,0Z" transform="translate(-85.19 -29.51)"/><path class="cls-26" d="M301.62,478a6,6,0,0,1,0,.65H296.5a1.72,1.72,0,0,0,1.84,1.49,2.88,2.88,0,0,0,1.81-.69l1.14,1.25a4.39,4.39,0,0,1-3.06,1.08,3.78,3.78,0,0,1-.1-7.55A3.47,3.47,0,0,1,301.62,478Zm-5.12-.66h3.18a1.55,1.55,0,0,0-1.56-1.44A1.57,1.57,0,0,0,296.5,477.37Z" transform="translate(-85.19 -29.51)"/><path class="cls-26" d="M310,478a3.55,3.55,0,0,1-3.47,3.77,2.62,2.62,0,0,1-2.11-.93v3.71h-1.92V474.46h1.89v.79a2.58,2.58,0,0,1,2.14-1A3.56,3.56,0,0,1,310,478Zm-5.67,0a1.85,1.85,0,1,0,1.84-2A1.84,1.84,0,0,0,304.29,478Z" transform="translate(-85.19 -29.51)"/><path class="cls-26" d="M313.07,472.11a1.24,1.24,0,0,1-2.47,0,1.24,1.24,0,1,1,2.47,0Zm-.26,9.52h-1.93v-7.17h1.93Z" transform="translate(-85.19 -29.51)"/><path class="cls-26" d="M316,477l2.7-2.55h2.37l-3.48,3.37,3.5,3.8h-2.37l-2.72-2.9v2.9H314.1V471H316Z" transform="translate(-85.19 -29.51)"/><path class="cls-26" d="M184.41,481.56v-1.05a3,3,0,0,1-2.39,1.23c-1.84,0-3.14-1.41-3.14-3.71s1.28-3.72,3.14-3.72a2.94,2.94,0,0,1,2.39,1.25v-3.77h1.1v9.77Zm0-1.91v-3.21a2.62,2.62,0,0,0-2.12-1.14c-1.42,0-2.27,1.17-2.27,2.73s.85,2.73,2.27,2.73A2.63,2.63,0,0,0,184.41,479.65Z" transform="translate(-85.19 -29.51)"/><path class="cls-26" d="M186.93,478a3.55,3.55,0,0,1,3.49-3.71c2.14,0,3.4,1.67,3.4,3.8v.28h-5.73a2.49,2.49,0,0,0,2.55,2.44,3.1,3.1,0,0,0,2.18-.89l.53.72a3.87,3.87,0,0,1-2.81,1.08A3.51,3.51,0,0,1,186.93,478Zm3.47-2.8a2.36,2.36,0,0,0-2.31,2.36h4.64A2.3,2.3,0,0,0,190.4,475.22Z" transform="translate(-85.19 -29.51)"/><path class="cls-26" d="M194.61,480.63l.57-.79a3.21,3.21,0,0,0,2.33,1c1.08,0,1.67-.52,1.67-1.22,0-1.71-4.38-.66-4.38-3.28,0-1.1.95-2,2.63-2a3.61,3.61,0,0,1,2.63,1l-.52.76a2.75,2.75,0,0,0-2.11-.89c-1,0-1.56.48-1.56,1.11,0,1.55,4.38.53,4.38,3.28,0,1.19-1,2.14-2.79,2.14A3.75,3.75,0,0,1,194.61,480.63Z" transform="translate(-85.19 -29.51)"/><path class="cls-26" d="M201.48,472.75a.74.74,0,0,1,.73-.75.76.76,0,0,1,.75.75.74.74,0,0,1-.75.73A.73.73,0,0,1,201.48,472.75Zm.19,8.81v-7.07h1.1v7.07Z" transform="translate(-85.19 -29.51)"/><path class="cls-26" d="M204.58,483.38l.56-.82a2.71,2.71,0,0,0,2.3,1,2,2,0,0,0,2.27-2.13v-1a3,3,0,0,1-2.37,1.26c-1.85,0-3.15-1.37-3.15-3.66s1.29-3.68,3.15-3.68a2.92,2.92,0,0,1,2.37,1.25v-1.07h1.1v6.87c0,2.34-1.64,3.08-3.37,3.08A3.64,3.64,0,0,1,204.58,483.38Zm5.13-3.85v-3.09a2.59,2.59,0,0,0-2.11-1.14c-1.42,0-2.27,1.12-2.27,2.69s.85,2.7,2.27,2.7A2.63,2.63,0,0,0,209.71,479.53Z" transform="translate(-85.19 -29.51)"/><path class="cls-26" d="M217.41,481.56v-4.62c0-1.25-.63-1.64-1.58-1.64a2.73,2.73,0,0,0-2.09,1.09v5.17h-1.1v-7.07h1.1v1a3.51,3.51,0,0,1,2.52-1.2,2,2,0,0,1,2.25,2.29v5Z" transform="translate(-85.19 -29.51)"/><path class="cls-26" d="M219.93,478a3.55,3.55,0,0,1,3.49-3.71c2.14,0,3.4,1.67,3.4,3.8v.28h-5.73a2.49,2.49,0,0,0,2.55,2.44,3.1,3.1,0,0,0,2.18-.89l.53.72a3.85,3.85,0,0,1-2.81,1.08A3.51,3.51,0,0,1,219.93,478Zm3.47-2.8a2.37,2.37,0,0,0-2.31,2.36h4.64A2.29,2.29,0,0,0,223.4,475.22Z" transform="translate(-85.19 -29.51)"/><path class="cls-26" d="M233.35,481.56v-1.05a3,3,0,0,1-2.39,1.23c-1.84,0-3.15-1.41-3.15-3.71s1.29-3.72,3.15-3.72a3,3,0,0,1,2.39,1.25v-3.77h1.1v9.77Zm0-1.91v-3.21a2.65,2.65,0,0,0-2.12-1.14c-1.42,0-2.27,1.17-2.27,2.73s.85,2.73,2.27,2.73A2.66,2.66,0,0,0,233.35,479.65Z" transform="translate(-85.19 -29.51)"/><path class="cls-26" d="M239.69,481.56v-9.77h1.1v3.77a2.93,2.93,0,0,1,2.39-1.25c1.84,0,3.15,1.47,3.15,3.72s-1.31,3.71-3.15,3.71a3,3,0,0,1-2.39-1.23v1.05Zm3.21-.8c1.44,0,2.29-1.16,2.29-2.73s-.85-2.73-2.29-2.73a2.62,2.62,0,0,0-2.11,1.14v3.21A2.62,2.62,0,0,0,242.9,480.76Z" transform="translate(-85.19 -29.51)"/><path class="cls-26" d="M247.53,483.34a1.73,1.73,0,0,0,.6.11,1,1,0,0,0,1.05-.74l.47-1.07-3-7.15h1.19l2.36,5.8,2.34-5.8h1.2L250.24,483a2.11,2.11,0,0,1-2.08,1.44,3.52,3.52,0,0,1-.81-.11Z" transform="translate(-85.19 -29.51)"/></g></g></svg>