<?xml version="1.0" encoding="utf-8"?>
<!-- Generator: Adobe Illustrator 26.0.1, SVG Export Plug-In . SVG Version: 6.00 Build 0)  -->
<svg version="1.1" id="Layer_1" xmlns="http://www.w3.org/2000/svg" xmlns:xlink="http://www.w3.org/1999/xlink" x="0px" y="0px"
	 viewBox="0 0 187 40" style="enable-background:new 0 0 187 40;" xml:space="preserve">
<style type="text/css">
	.st0{fill:#394149;}
	.st1{fill:#006B6A;}
</style>
<path id="Vector" class="st0" d="M30.2,17.8c-0.5,0.5-0.9,1.1-1.1,1.8c-0.2,0.7-0.3,1.4-0.3,2.1l0,0c0.1,0.8,0,1.7-0.3,2.5
	c-0.3,0.8-0.7,1.5-1.3,2.1c-0.6,0.6-1.3,1.1-2.1,1.3c-0.8,0.3-1.6,0.4-2.5,0.3l0,0c-1-0.1-2,0.1-2.9,0.6c-0.9,0.5-1.6,1.3-2,2.2
	c-0.4,0.9-0.6,1.9-0.4,2.9c0.2,1,0.7,1.9,1.4,2.6c0.7,0.7,1.6,1.2,2.6,1.4c1,0.2,2,0,2.9-0.4c0.9-0.4,1.7-1.1,2.2-2
	c0.5-0.9,0.7-1.9,0.6-2.9l0,0c-0.1-0.8,0-1.7,0.3-2.5c0.3-0.8,0.7-1.5,1.3-2.1c0.6-0.6,1.3-1.1,2.1-1.3c0.8-0.3,1.6-0.4,2.5-0.3l0,0
	c0.8,0.1,1.6-0.1,2.4-0.4c0.8-0.3,1.4-0.8,1.9-1.5c0.5-0.7,0.8-1.4,1-2.2c0.1-0.8,0-1.6-0.2-2.4c-0.3-0.8-0.8-1.5-1.4-2
	c-0.6-0.5-1.4-0.9-2.2-1.1c-0.8-0.2-1.6-0.1-2.4,0.1C31.5,16.8,30.8,17.2,30.2,17.8L30.2,17.8z"/>
<path id="Vector_2" class="st1" d="M20.4,24.8L20.4,24.8c0.7,0,1.4,0,2.1-0.3c0.7-0.2,1.3-0.6,1.8-1.1c0.5-0.5,0.9-1.1,1.1-1.8
	c0.2-0.7,0.3-1.4,0.3-2.1l0,0c-0.1-0.8,0-1.7,0.3-2.5c0.3-0.8,0.7-1.5,1.3-2.1c0.6-0.6,1.3-1.1,2.1-1.3c0.8-0.3,1.6-0.4,2.5-0.3l0,0
	c1,0.1,2-0.1,2.9-0.6c0.9-0.5,1.6-1.3,2-2.2c0.4-0.9,0.6-1.9,0.4-2.9c-0.2-1-0.6-1.9-1.4-2.6c-0.7-0.7-1.6-1.2-2.6-1.4
	c-1-0.2-2,0-2.9,0.4c-0.9,0.4-1.7,1.1-2.2,2c-0.5,0.9-0.7,1.9-0.6,2.9l0,0c0.1,0.8,0,1.7-0.3,2.5c-0.3,0.8-0.7,1.5-1.3,2.1
	c-0.6,0.6-1.3,1.1-2.1,1.3c-0.8,0.3-1.6,0.4-2.5,0.3l0,0c-0.7-0.1-1.4,0-2.1,0.3c-0.7,0.2-1.3,0.6-1.8,1.1c-0.5,0.5-0.9,1.1-1.1,1.8
	c-0.2,0.7-0.3,1.4-0.3,2.1l0,0c0.1,0.8,0,1.7-0.3,2.5c-0.3,0.8-0.7,1.5-1.3,2.1c-0.6,0.6-1.3,1.1-2.1,1.3c-0.8,0.3-1.6,0.4-2.5,0.3
	l0,0c-1-0.1-2,0.1-2.9,0.6c-0.9,0.5-1.6,1.3-2,2.2c-0.4,0.9-0.6,1.9-0.4,2.9c0.2,1,0.6,1.9,1.4,2.6c0.7,0.7,1.6,1.2,2.6,1.4
	c1,0.2,2,0,2.9-0.4c0.9-0.4,1.7-1.1,2.2-2c0.5-0.9,0.7-1.9,0.6-2.9l0,0c-0.1-0.8,0-1.7,0.3-2.5c0.3-0.8,0.7-1.5,1.3-2.1
	c0.6-0.6,1.3-1.1,2.1-1.3C18.7,24.9,19.5,24.8,20.4,24.8z"/>
<path id="Vector_3" class="st0" d="M11.5,22.2c0.5-0.5,0.9-1.1,1.1-1.8c0.2-0.7,0.3-1.4,0.3-2.1l0,0c-0.1-0.8,0-1.7,0.3-2.5
	c0.3-0.8,0.7-1.5,1.3-2.1c0.6-0.6,1.3-1.1,2.1-1.3c0.8-0.3,1.6-0.4,2.5-0.3l0,0c1,0.1,2-0.1,2.9-0.6c0.9-0.5,1.6-1.3,2-2.2
	c0.4-0.9,0.6-1.9,0.4-2.9c-0.2-1-0.6-1.9-1.4-2.6c-0.7-0.7-1.6-1.2-2.6-1.4c-1-0.2-2,0-2.9,0.4c-0.9,0.4-1.7,1.1-2.2,2
	c-0.5,0.9-0.7,1.9-0.6,2.9l0,0c0.1,0.8,0,1.7-0.3,2.5c-0.3,0.8-0.7,1.5-1.3,2.1c-0.6,0.6-1.3,1.1-2.1,1.3c-0.8,0.3-1.6,0.4-2.5,0.3
	l0,0c-0.8-0.1-1.6,0.1-2.4,0.4c-0.8,0.3-1.4,0.8-1.9,1.5s-0.8,1.4-1,2.2c-0.1,0.8,0,1.6,0.2,2.4c0.3,0.8,0.8,1.5,1.4,2
	c0.6,0.5,1.4,0.9,2.2,1.1c0.8,0.2,1.6,0.1,2.4-0.1C10.2,23.2,10.9,22.8,11.5,22.2L11.5,22.2z"/>
<path id="Vector_13" class="st0" d="M181,14.9c1.6,0,2.9-1.3,2.9-2.9c0-1.6-1.3-2.9-2.9-2.9s-2.9,1.3-2.9,2.9
	C178.1,13.5,179.4,14.9,181,14.9z"/>
<g>
	<path class="st0" d="M65,27.8v-20h6.5c2.5,0,4.1,0.1,4.8,0.3c1.1,0.3,2.1,1,2.9,2c0.8,1,1.2,2.3,1.2,3.9c0,1.2-0.2,2.3-0.7,3.1
		c-0.4,0.8-1,1.5-1.7,2c-0.7,0.5-1.4,0.8-2.1,1c-1,0.2-2.4,0.3-4.2,0.3h-2.6v7.6H65z M69.1,11.2v5.7h2.2c1.6,0,2.7-0.1,3.2-0.3
		c0.5-0.2,1-0.5,1.3-1c0.3-0.4,0.5-1,0.5-1.6c0-0.7-0.2-1.3-0.6-1.8c-0.4-0.5-1-0.8-1.6-0.9c-0.5-0.1-1.5-0.1-2.9-0.1H69.1z"/>
	<path class="st0" d="M82.8,20.3c0-1.3,0.3-2.5,0.9-3.7c0.6-1.2,1.5-2.1,2.7-2.7c1.2-0.6,2.4-0.9,3.9-0.9c2.2,0,4,0.7,5.4,2.1
		c1.4,1.4,2.1,3.2,2.1,5.4c0,2.2-0.7,4-2.1,5.5c-1.4,1.4-3.2,2.2-5.4,2.2c-1.3,0-2.6-0.3-3.8-0.9c-1.2-0.6-2.1-1.5-2.8-2.6
		S82.8,22,82.8,20.3z M86.7,20.5c0,1.4,0.3,2.5,1,3.3s1.5,1.1,2.5,1.1c1,0,1.8-0.4,2.5-1.1c0.7-0.8,1-1.9,1-3.3c0-1.4-0.3-2.5-1-3.3
		c-0.7-0.8-1.5-1.1-2.5-1.1c-1,0-1.8,0.4-2.5,1.1S86.7,19.1,86.7,20.5z"/>
	<path class="st0" d="M104.4,27.8h-3.8V13.3h3.6v2.1c0.6-1,1.2-1.6,1.6-1.9c0.5-0.3,1-0.5,1.7-0.5c0.9,0,1.7,0.2,2.5,0.7l-1.2,3.3
		c-0.6-0.4-1.2-0.6-1.8-0.6c-0.5,0-1,0.1-1.4,0.4c-0.4,0.3-0.7,0.8-0.9,1.6c-0.2,0.8-0.3,2.4-0.3,4.9V27.8z"/>
	<path class="st0" d="M118.3,13.3v3.1h-2.6v5.9c0,1.2,0,1.9,0.1,2.1s0.2,0.4,0.3,0.5s0.4,0.2,0.6,0.2c0.4,0,0.9-0.1,1.5-0.4l0.3,3
		c-0.9,0.4-1.9,0.6-3,0.6c-0.7,0-1.3-0.1-1.9-0.3s-1-0.5-1.2-0.9s-0.4-0.9-0.5-1.5c-0.1-0.4-0.1-1.3-0.1-2.7v-6.3h-1.8v-3.1h1.8
		v-2.9l3.9-2.2v5.1H118.3z"/>
	<path class="st0" d="M119.3,13.3h2.1v-1.1c0-1.2,0.1-2.1,0.4-2.7s0.7-1.1,1.4-1.5c0.7-0.4,1.6-0.6,2.6-0.6c1.1,0,2.2,0.2,3.2,0.5
		l-0.5,2.7c-0.6-0.1-1.2-0.2-1.8-0.2c-0.6,0-1,0.1-1.2,0.4s-0.4,0.8-0.4,1.5v1h2.9v3h-2.9v11.5h-3.8V16.3h-2.1V13.3z"/>
	<path class="st0" d="M129.4,20.3c0-1.3,0.3-2.5,0.9-3.7c0.6-1.2,1.5-2.1,2.7-2.7s2.4-0.9,3.9-0.9c2.2,0,4,0.7,5.4,2.1
		c1.4,1.4,2.1,3.2,2.1,5.4c0,2.2-0.7,4-2.1,5.5s-3.2,2.2-5.4,2.2c-1.3,0-2.6-0.3-3.8-0.9s-2.1-1.5-2.8-2.6S129.4,22,129.4,20.3z
		 M133.4,20.5c0,1.4,0.3,2.5,1,3.3s1.5,1.1,2.5,1.1s1.8-0.4,2.5-1.1s1-1.9,1-3.3c0-1.4-0.3-2.5-1-3.3s-1.5-1.1-2.5-1.1
		s-1.8,0.4-2.5,1.1S133.4,19.1,133.4,20.5z"/>
	<path class="st0" d="M147.4,27.8v-20h3.8v20H147.4z"/>
	<path class="st0" d="M155.2,11.3V7.8h3.8v3.6H155.2z M155.2,27.8V13.3h3.8v14.5H155.2z"/>
	<path class="st0" d="M162.1,20.3c0-1.3,0.3-2.5,0.9-3.7c0.6-1.2,1.5-2.1,2.7-2.7s2.4-0.9,3.9-0.9c2.2,0,4,0.7,5.4,2.1
		c1.4,1.4,2.1,3.2,2.1,5.4c0,2.2-0.7,4-2.1,5.5s-3.2,2.2-5.4,2.2c-1.3,0-2.6-0.3-3.8-0.9s-2.1-1.5-2.8-2.6S162.1,22,162.1,20.3z
		 M166,20.5c0,1.4,0.3,2.5,1,3.3s1.5,1.1,2.5,1.1s1.8-0.4,2.5-1.1s1-1.9,1-3.3c0-1.4-0.3-2.5-1-3.3s-1.5-1.1-2.5-1.1
		s-1.8,0.4-2.5,1.1S166,19.1,166,20.5z"/>
</g>
</svg>
